<?xml version='1.0' encoding='utf-8'?>
<mlt title="Anonymous Submission" version="6.5.0" root="/home/martin/Desktop/av" producer="main bin" LC_NUMERIC="en_CA.UTF-8">
 <profile width="1920" frame_rate_den="1" height="1080" display_aspect_num="16" display_aspect_den="9" frame_rate_num="30" colorspace="709" sample_aspect_den="1" description="HD 1080p 30 fps" progressive="1" sample_aspect_num="1"/>
 <producer id="1" title="Anonymous Submission" out="7816" in="0">
  <property name="length">00:04:20:17</property>
  <property name="eof">pause</property>
  <property name="resource">audio/arraystack-i.wav</property>
  <property name="audio_index">0</property>
  <property name="video_index">-1</property>
  <property name="mute_on_pause">1</property>
  <property name="mlt_service">avformat-novalidate</property>
  <property name="meta.media.nb_streams">1</property>
  <property name="meta.media.0.stream.type">audio</property>
  <property name="meta.media.0.codec.sample_fmt">s16</property>
  <property name="meta.media.0.codec.sample_rate">44100</property>
  <property name="meta.media.0.codec.channels">2</property>
  <property name="meta.media.0.codec.name">pcm_s16le</property>
  <property name="meta.media.0.codec.long_name">PCM signed 16-bit little-endian</property>
  <property name="meta.media.0.codec.bit_rate">1411200</property>
  <property name="meta.attr.encoder.markup">Lavf56.40.101</property>
  <property name="seekable">1</property>
  <property name="kdenlive:folderid">-1</property>
  <property name="kdenlive:file_size">45961294</property>
  <property name="kdenlive:file_hash">43a34150bc732c9147b958cde6c8f3d5</property>
  <property name="global_feed">1</property>
 </producer>
 <producer id="2" out="149" in="0">
  <property name="length">150</property>
  <property name="eof">pause</property>
  <property name="resource">arraystack-i-images/arraystack-i-01.png</property>
  <property name="ttl">25</property>
  <property name="aspect_ratio">1</property>
  <property name="progressive">1</property>
  <property name="seekable">1</property>
  <property name="loop">1</property>
  <property name="meta.media.width">1921</property>
  <property name="meta.media.height">1080</property>
  <property name="mlt_service">pixbuf</property>
  <property name="kdenlive:folderid">-1</property>
  <property name="kdenlive:duration">150</property>
  <property name="kdenlive:file_size">33041</property>
  <property name="kdenlive:file_hash">be1763012945e4e20de93d94a30c0c16</property>
 </producer>
 <producer id="3" out="433" in="0">
  <property name="length">434</property>
  <property name="eof">pause</property>
  <property name="resource">arraystack-i-images/arraystack-i-02.png</property>
  <property name="ttl">25</property>
  <property name="aspect_ratio">1</property>
  <property name="progressive">1</property>
  <property name="seekable">1</property>
  <property name="loop">1</property>
  <property name="meta.media.width">1921</property>
  <property name="meta.media.height">1080</property>
  <property name="mlt_service">pixbuf</property>
  <property name="kdenlive:folderid">-1</property>
  <property name="kdenlive:duration">150</property>
  <property name="kdenlive:file_size">52128</property>
  <property name="kdenlive:file_hash">810e590d9e40def3a900bdeb8d6e58fd</property>
 </producer>
 <producer id="4" out="382" in="0">
  <property name="length">383</property>
  <property name="eof">pause</property>
  <property name="resource">arraystack-i-images/arraystack-i-03.png</property>
  <property name="ttl">25</property>
  <property name="aspect_ratio">1</property>
  <property name="progressive">1</property>
  <property name="seekable">1</property>
  <property name="loop">1</property>
  <property name="meta.media.width">1921</property>
  <property name="meta.media.height">1080</property>
  <property name="mlt_service">pixbuf</property>
  <property name="kdenlive:folderid">-1</property>
  <property name="kdenlive:duration">150</property>
  <property name="kdenlive:file_size">53413</property>
  <property name="kdenlive:file_hash">a3d862f27298aa1c92a7cf4fea37b154</property>
 </producer>
 <producer id="5" out="305" in="0">
  <property name="length">306</property>
  <property name="eof">pause</property>
  <property name="resource">arraystack-i-images/arraystack-i-04.png</property>
  <property name="ttl">25</property>
  <property name="aspect_ratio">1</property>
  <property name="progressive">1</property>
  <property name="seekable">1</property>
  <property name="loop">1</property>
  <property name="meta.media.width">1921</property>
  <property name="meta.media.height">1080</property>
  <property name="mlt_service">pixbuf</property>
  <property name="kdenlive:folderid">-1</property>
  <property name="kdenlive:duration">150</property>
  <property name="kdenlive:file_size">58467</property>
  <property name="kdenlive:file_hash">054aa9b281d6ca5a9f2f0230a3c497e2</property>
 </producer>
 <producer id="6" out="149" in="0">
  <property name="length">150</property>
  <property name="eof">pause</property>
  <property name="resource">arraystack-i-images/arraystack-i-05.png</property>
  <property name="ttl">25</property>
  <property name="aspect_ratio">1</property>
  <property name="progressive">1</property>
  <property name="seekable">1</property>
  <property name="loop">1</property>
  <property name="meta.media.width">1921</property>
  <property name="meta.media.height">1080</property>
  <property name="mlt_service">pixbuf</property>
  <property name="kdenlive:folderid">-1</property>
  <property name="kdenlive:duration">150</property>
  <property name="kdenlive:file_size">53413</property>
  <property name="kdenlive:file_hash">a3d862f27298aa1c92a7cf4fea37b154</property>
 </producer>
 <producer id="7" out="211" in="0">
  <property name="length">212</property>
  <property name="eof">pause</property>
  <property name="resource">arraystack-i-images/arraystack-i-06.png</property>
  <property name="ttl">25</property>
  <property name="aspect_ratio">1</property>
  <property name="progressive">1</property>
  <property name="seekable">1</property>
  <property name="loop">1</property>
  <property name="meta.media.width">1921</property>
  <property name="meta.media.height">1080</property>
  <property name="mlt_service">pixbuf</property>
  <property name="kdenlive:folderid">-1</property>
  <property name="kdenlive:duration">150</property>
  <property name="kdenlive:file_size">57233</property>
  <property name="kdenlive:file_hash">27fbf9e1d2ed5d1ce65d650d5ff61d16</property>
 </producer>
 <producer id="8" out="149" in="0">
  <property name="length">150</property>
  <property name="eof">pause</property>
  <property name="resource">arraystack-i-images/arraystack-i-07.png</property>
  <property name="ttl">25</property>
  <property name="aspect_ratio">1</property>
  <property name="progressive">1</property>
  <property name="seekable">1</property>
  <property name="loop">1</property>
  <property name="meta.media.width">1921</property>
  <property name="meta.media.height">1080</property>
  <property name="mlt_service">pixbuf</property>
  <property name="kdenlive:folderid">-1</property>
  <property name="kdenlive:duration">150</property>
  <property name="kdenlive:file_size">57482</property>
  <property name="kdenlive:file_hash">8a13c551442f510939d32c69aa413dec</property>
 </producer>
 <producer id="9" out="149" in="0">
  <property name="length">150</property>
  <property name="eof">pause</property>
  <property name="resource">arraystack-i-images/arraystack-i-08.png</property>
  <property name="ttl">25</property>
  <property name="aspect_ratio">1</property>
  <property name="progressive">1</property>
  <property name="seekable">1</property>
  <property name="loop">1</property>
  <property name="meta.media.width">1921</property>
  <property name="meta.media.height">1080</property>
  <property name="mlt_service">pixbuf</property>
  <property name="kdenlive:folderid">-1</property>
  <property name="kdenlive:duration">150</property>
  <property name="kdenlive:file_size">60764</property>
  <property name="kdenlive:file_hash">8507bd12e0f2b698f0fb6f765b84e246</property>
 </producer>
 <producer id="10" out="149" in="0">
  <property name="length">150</property>
  <property name="eof">pause</property>
  <property name="resource">arraystack-i-images/arraystack-i-09.png</property>
  <property name="ttl">25</property>
  <property name="aspect_ratio">1</property>
  <property name="progressive">1</property>
  <property name="seekable">1</property>
  <property name="loop">1</property>
  <property name="meta.media.width">1921</property>
  <property name="meta.media.height">1080</property>
  <property name="mlt_service">pixbuf</property>
  <property name="kdenlive:folderid">-1</property>
  <property name="kdenlive:duration">150</property>
  <property name="kdenlive:file_size">53413</property>
  <property name="kdenlive:file_hash">a3d862f27298aa1c92a7cf4fea37b154</property>
 </producer>
 <producer id="11" out="149" in="0">
  <property name="length">150</property>
  <property name="eof">pause</property>
  <property name="resource">arraystack-i-images/arraystack-i-10.png</property>
  <property name="ttl">25</property>
  <property name="aspect_ratio">1</property>
  <property name="progressive">1</property>
  <property name="seekable">1</property>
  <property name="loop">1</property>
  <property name="meta.media.width">1921</property>
  <property name="meta.media.height">1080</property>
  <property name="mlt_service">pixbuf</property>
  <property name="kdenlive:folderid">-1</property>
  <property name="kdenlive:duration">150</property>
  <property name="kdenlive:file_size">57715</property>
  <property name="kdenlive:file_hash">dfb58d1925d55a5e8ec14a4046b03be2</property>
 </producer>
 <producer id="12" out="149" in="0">
  <property name="length">150</property>
  <property name="eof">pause</property>
  <property name="resource">arraystack-i-images/arraystack-i-11.png</property>
  <property name="ttl">25</property>
  <property name="aspect_ratio">1</property>
  <property name="progressive">1</property>
  <property name="seekable">1</property>
  <property name="loop">1</property>
  <property name="meta.media.width">1921</property>
  <property name="meta.media.height">1080</property>
  <property name="mlt_service">pixbuf</property>
  <property name="kdenlive:folderid">-1</property>
  <property name="kdenlive:duration">150</property>
  <property name="kdenlive:file_size">57946</property>
  <property name="kdenlive:file_hash">4dbdd2a27090d31b48429cce5fa0204c</property>
 </producer>
 <producer id="13" out="149" in="0">
  <property name="length">150</property>
  <property name="eof">pause</property>
  <property name="resource">arraystack-i-images/arraystack-i-12.png</property>
  <property name="ttl">25</property>
  <property name="aspect_ratio">1</property>
  <property name="progressive">1</property>
  <property name="seekable">1</property>
  <property name="loop">1</property>
  <property name="meta.media.width">1921</property>
  <property name="meta.media.height">1080</property>
  <property name="mlt_service">pixbuf</property>
  <property name="kdenlive:folderid">-1</property>
  <property name="kdenlive:duration">150</property>
  <property name="kdenlive:file_size">58019</property>
  <property name="kdenlive:file_hash">a996fc3cbb19f030d7bfd531def63636</property>
 </producer>
 <producer id="14" out="149" in="0">
  <property name="length">150</property>
  <property name="eof">pause</property>
  <property name="resource">arraystack-i-images/arraystack-i-13.png</property>
  <property name="ttl">25</property>
  <property name="aspect_ratio">1</property>
  <property name="progressive">1</property>
  <property name="seekable">1</property>
  <property name="loop">1</property>
  <property name="meta.media.width">1921</property>
  <property name="meta.media.height">1080</property>
  <property name="mlt_service">pixbuf</property>
  <property name="kdenlive:folderid">-1</property>
  <property name="kdenlive:duration">150</property>
  <property name="kdenlive:file_size">53495</property>
  <property name="kdenlive:file_hash">f96faae79e93e3dd7e08a13c5d73edc5</property>
 </producer>
 <producer id="15" out="151" in="0">
  <property name="length">152</property>
  <property name="eof">pause</property>
  <property name="resource">arraystack-i-images/arraystack-i-14.png</property>
  <property name="ttl">25</property>
  <property name="aspect_ratio">1</property>
  <property name="progressive">1</property>
  <property name="seekable">1</property>
  <property name="loop">1</property>
  <property name="meta.media.width">1921</property>
  <property name="meta.media.height">1080</property>
  <property name="mlt_service">pixbuf</property>
  <property name="kdenlive:folderid">-1</property>
  <property name="kdenlive:duration">150</property>
  <property name="kdenlive:file_size">58311</property>
  <property name="kdenlive:file_hash">e405904e641da4beb9c668b66fb3d822</property>
 </producer>
 <producer id="16" out="149" in="0">
  <property name="length">150</property>
  <property name="eof">pause</property>
  <property name="resource">arraystack-i-images/arraystack-i-15.png</property>
  <property name="ttl">25</property>
  <property name="aspect_ratio">1</property>
  <property name="progressive">1</property>
  <property name="seekable">1</property>
  <property name="loop">1</property>
  <property name="meta.media.width">1921</property>
  <property name="meta.media.height">1080</property>
  <property name="mlt_service">pixbuf</property>
  <property name="kdenlive:folderid">-1</property>
  <property name="kdenlive:duration">150</property>
  <property name="kdenlive:file_size">58590</property>
  <property name="kdenlive:file_hash">6cd293716a03c29587e0c7d8048877d4</property>
 </producer>
 <producer id="17" out="284" in="0">
  <property name="length">285</property>
  <property name="eof">pause</property>
  <property name="resource">arraystack-i-images/arraystack-i-16.png</property>
  <property name="ttl">25</property>
  <property name="aspect_ratio">1</property>
  <property name="progressive">1</property>
  <property name="seekable">1</property>
  <property name="loop">1</property>
  <property name="meta.media.width">1921</property>
  <property name="meta.media.height">1080</property>
  <property name="mlt_service">pixbuf</property>
  <property name="kdenlive:folderid">-1</property>
  <property name="kdenlive:duration">150</property>
  <property name="kdenlive:file_size">59491</property>
  <property name="kdenlive:file_hash">347a8ce159c8c840fa2e932f236368b1</property>
 </producer>
 <producer id="18" out="149" in="0">
  <property name="length">150</property>
  <property name="eof">pause</property>
  <property name="resource">arraystack-i-images/arraystack-i-17.png</property>
  <property name="ttl">25</property>
  <property name="aspect_ratio">1</property>
  <property name="progressive">1</property>
  <property name="seekable">1</property>
  <property name="loop">1</property>
  <property name="meta.media.width">1921</property>
  <property name="meta.media.height">1080</property>
  <property name="mlt_service">pixbuf</property>
  <property name="kdenlive:folderid">-1</property>
  <property name="kdenlive:duration">150</property>
  <property name="kdenlive:file_size">58592</property>
  <property name="kdenlive:file_hash">701d05e5ee8914f117e3668c7360558a</property>
 </producer>
 <producer id="19" out="149" in="0">
  <property name="length">150</property>
  <property name="eof">pause</property>
  <property name="resource">arraystack-i-images/arraystack-i-18.png</property>
  <property name="ttl">25</property>
  <property name="aspect_ratio">1</property>
  <property name="progressive">1</property>
  <property name="seekable">1</property>
  <property name="loop">1</property>
  <property name="meta.media.width">1921</property>
  <property name="meta.media.height">1080</property>
  <property name="mlt_service">pixbuf</property>
  <property name="kdenlive:folderid">-1</property>
  <property name="kdenlive:duration">150</property>
  <property name="kdenlive:file_size">58595</property>
  <property name="kdenlive:file_hash">a8ffc112c38e85e069249bb772b2641d</property>
 </producer>
 <producer id="20" out="149" in="0">
  <property name="length">150</property>
  <property name="eof">pause</property>
  <property name="resource">arraystack-i-images/arraystack-i-19.png</property>
  <property name="ttl">25</property>
  <property name="aspect_ratio">1</property>
  <property name="progressive">1</property>
  <property name="seekable">1</property>
  <property name="loop">1</property>
  <property name="meta.media.width">1921</property>
  <property name="meta.media.height">1080</property>
  <property name="mlt_service">pixbuf</property>
  <property name="kdenlive:folderid">-1</property>
  <property name="kdenlive:duration">150</property>
  <property name="kdenlive:file_size">58594</property>
  <property name="kdenlive:file_hash">154a65452e2d0aafda053d6dc238b5f2</property>
 </producer>
 <producer id="21" out="149" in="0">
  <property name="length">150</property>
  <property name="eof">pause</property>
  <property name="resource">arraystack-i-images/arraystack-i-20.png</property>
  <property name="ttl">25</property>
  <property name="aspect_ratio">1</property>
  <property name="progressive">1</property>
  <property name="seekable">1</property>
  <property name="loop">1</property>
  <property name="meta.media.width">1921</property>
  <property name="meta.media.height">1080</property>
  <property name="mlt_service">pixbuf</property>
  <property name="kdenlive:folderid">-1</property>
  <property name="kdenlive:duration">150</property>
  <property name="kdenlive:file_size">58589</property>
  <property name="kdenlive:file_hash">3ac47a790721b599cca99af66aeb357d</property>
 </producer>
 <producer id="22" out="149" in="0">
  <property name="length">150</property>
  <property name="eof">pause</property>
  <property name="resource">arraystack-i-images/arraystack-i-21.png</property>
  <property name="ttl">25</property>
  <property name="aspect_ratio">1</property>
  <property name="progressive">1</property>
  <property name="seekable">1</property>
  <property name="loop">1</property>
  <property name="meta.media.width">1921</property>
  <property name="meta.media.height">1080</property>
  <property name="mlt_service">pixbuf</property>
  <property name="kdenlive:folderid">-1</property>
  <property name="kdenlive:duration">150</property>
  <property name="kdenlive:file_size">59944</property>
  <property name="kdenlive:file_hash">335e589aff382a06bcca5c6b9a340438</property>
 </producer>
 <producer id="23" out="149" in="0">
  <property name="length">150</property>
  <property name="eof">pause</property>
  <property name="resource">arraystack-i-images/arraystack-i-22.png</property>
  <property name="ttl">25</property>
  <property name="aspect_ratio">1</property>
  <property name="progressive">1</property>
  <property name="seekable">1</property>
  <property name="loop">1</property>
  <property name="meta.media.width">1921</property>
  <property name="meta.media.height">1080</property>
  <property name="mlt_service">pixbuf</property>
  <property name="kdenlive:folderid">-1</property>
  <property name="kdenlive:duration">150</property>
  <property name="kdenlive:file_size">60347</property>
  <property name="kdenlive:file_hash">cd8384c0677494c002bd48db12b79427</property>
 </producer>
 <producer id="24" out="149" in="0">
  <property name="length">150</property>
  <property name="eof">pause</property>
  <property name="resource">arraystack-i-images/arraystack-i-23.png</property>
  <property name="ttl">25</property>
  <property name="aspect_ratio">1</property>
  <property name="progressive">1</property>
  <property name="seekable">1</property>
  <property name="loop">1</property>
  <property name="meta.media.width">1921</property>
  <property name="meta.media.height">1080</property>
  <property name="mlt_service">pixbuf</property>
  <property name="kdenlive:folderid">-1</property>
  <property name="kdenlive:duration">150</property>
  <property name="kdenlive:file_size">55506</property>
  <property name="kdenlive:file_hash">d5434c2f5b1a527a7a788c2bdaeea67b</property>
 </producer>
 <producer id="25" out="149" in="0">
  <property name="length">150</property>
  <property name="eof">pause</property>
  <property name="resource">arraystack-i-images/arraystack-i-24.png</property>
  <property name="ttl">25</property>
  <property name="aspect_ratio">1</property>
  <property name="progressive">1</property>
  <property name="seekable">1</property>
  <property name="loop">1</property>
  <property name="meta.media.width">1921</property>
  <property name="meta.media.height">1080</property>
  <property name="mlt_service">pixbuf</property>
  <property name="kdenlive:folderid">-1</property>
  <property name="kdenlive:duration">150</property>
  <property name="kdenlive:file_size">61731</property>
  <property name="kdenlive:file_hash">be4c6cbd0a7832073cf59d34332683d6</property>
 </producer>
 <producer id="26" out="149" in="0">
  <property name="length">150</property>
  <property name="eof">pause</property>
  <property name="resource">arraystack-i-images/arraystack-i-25.png</property>
  <property name="ttl">25</property>
  <property name="aspect_ratio">1</property>
  <property name="progressive">1</property>
  <property name="seekable">1</property>
  <property name="loop">1</property>
  <property name="meta.media.width">1921</property>
  <property name="meta.media.height">1080</property>
  <property name="mlt_service">pixbuf</property>
  <property name="kdenlive:folderid">-1</property>
  <property name="kdenlive:duration">150</property>
  <property name="kdenlive:file_size">62101</property>
  <property name="kdenlive:file_hash">813dc82f734e7727f42b3d2a0711a69c</property>
 </producer>
 <producer id="27" out="149" in="0">
  <property name="length">150</property>
  <property name="eof">pause</property>
  <property name="resource">arraystack-i-images/arraystack-i-26.png</property>
  <property name="ttl">25</property>
  <property name="aspect_ratio">1</property>
  <property name="progressive">1</property>
  <property name="seekable">1</property>
  <property name="loop">1</property>
  <property name="meta.media.width">1921</property>
  <property name="meta.media.height">1080</property>
  <property name="mlt_service">pixbuf</property>
  <property name="kdenlive:folderid">-1</property>
  <property name="kdenlive:duration">150</property>
  <property name="kdenlive:file_size">65310</property>
  <property name="kdenlive:file_hash">bdb8dace3746bd71e85d4f85ca343058</property>
 </producer>
 <producer id="28" out="182" in="0">
  <property name="length">183</property>
  <property name="eof">pause</property>
  <property name="resource">arraystack-i-images/arraystack-i-27.png</property>
  <property name="ttl">25</property>
  <property name="aspect_ratio">1</property>
  <property name="progressive">1</property>
  <property name="seekable">1</property>
  <property name="loop">1</property>
  <property name="meta.media.width">1921</property>
  <property name="meta.media.height">1080</property>
  <property name="mlt_service">pixbuf</property>
  <property name="kdenlive:folderid">-1</property>
  <property name="kdenlive:duration">150</property>
  <property name="kdenlive:file_size">58556</property>
  <property name="kdenlive:file_hash">c613b291e104063a04c4b2fe03503852</property>
 </producer>
 <producer id="29" out="149" in="0">
  <property name="length">150</property>
  <property name="eof">pause</property>
  <property name="resource">arraystack-i-images/arraystack-i-28.png</property>
  <property name="ttl">25</property>
  <property name="aspect_ratio">1</property>
  <property name="progressive">1</property>
  <property name="seekable">1</property>
  <property name="loop">1</property>
  <property name="meta.media.width">1921</property>
  <property name="meta.media.height">1080</property>
  <property name="mlt_service">pixbuf</property>
  <property name="kdenlive:folderid">-1</property>
  <property name="kdenlive:duration">150</property>
  <property name="kdenlive:file_size">58499</property>
  <property name="kdenlive:file_hash">8ca394d125f0ec7a52cb2cc42ada269e</property>
 </producer>
 <producer id="30" out="305" in="0">
  <property name="length">306</property>
  <property name="eof">pause</property>
  <property name="resource">arraystack-i-images/arraystack-i-29.png</property>
  <property name="ttl">25</property>
  <property name="aspect_ratio">1</property>
  <property name="progressive">1</property>
  <property name="seekable">1</property>
  <property name="loop">1</property>
  <property name="meta.media.width">1921</property>
  <property name="meta.media.height">1080</property>
  <property name="mlt_service">pixbuf</property>
  <property name="kdenlive:folderid">-1</property>
  <property name="kdenlive:duration">150</property>
  <property name="kdenlive:file_size">63996</property>
  <property name="kdenlive:file_hash">8b9d5484518ed36fd68e12f109543cf2</property>
 </producer>
 <producer id="31" out="151" in="0">
  <property name="length">152</property>
  <property name="eof">pause</property>
  <property name="resource">arraystack-i-images/arraystack-i-30.png</property>
  <property name="ttl">25</property>
  <property name="aspect_ratio">1</property>
  <property name="progressive">1</property>
  <property name="seekable">1</property>
  <property name="loop">1</property>
  <property name="meta.media.width">1921</property>
  <property name="meta.media.height">1080</property>
  <property name="mlt_service">pixbuf</property>
  <property name="kdenlive:folderid">-1</property>
  <property name="kdenlive:duration">150</property>
  <property name="kdenlive:file_size">71726</property>
  <property name="kdenlive:file_hash">64059643e799e98b4c7f4fa38f2d3720</property>
 </producer>
 <producer id="32" out="149" in="0">
  <property name="length">150</property>
  <property name="eof">pause</property>
  <property name="resource">arraystack-i-images/arraystack-i-31.png</property>
  <property name="ttl">25</property>
  <property name="aspect_ratio">1</property>
  <property name="progressive">1</property>
  <property name="seekable">1</property>
  <property name="loop">1</property>
  <property name="meta.media.width">1921</property>
  <property name="meta.media.height">1080</property>
  <property name="mlt_service">pixbuf</property>
  <property name="kdenlive:folderid">-1</property>
  <property name="kdenlive:duration">150</property>
  <property name="kdenlive:file_size">67879</property>
  <property name="kdenlive:file_hash">e35bb9317bce1b07a38445e17603330b</property>
 </producer>
 <producer id="33" out="149" in="0">
  <property name="length">150</property>
  <property name="eof">pause</property>
  <property name="resource">arraystack-i-images/arraystack-i-32.png</property>
  <property name="ttl">25</property>
  <property name="aspect_ratio">1</property>
  <property name="progressive">1</property>
  <property name="seekable">1</property>
  <property name="loop">1</property>
  <property name="meta.media.width">1921</property>
  <property name="meta.media.height">1080</property>
  <property name="mlt_service">pixbuf</property>
  <property name="kdenlive:folderid">-1</property>
  <property name="kdenlive:duration">150</property>
  <property name="kdenlive:file_size">67708</property>
  <property name="kdenlive:file_hash">ed5768d4fdd8c4acd8f5cf5b7afb8f25</property>
 </producer>
 <producer id="34" out="149" in="0">
  <property name="length">150</property>
  <property name="eof">pause</property>
  <property name="resource">arraystack-i-images/arraystack-i-33.png</property>
  <property name="ttl">25</property>
  <property name="aspect_ratio">1</property>
  <property name="progressive">1</property>
  <property name="seekable">1</property>
  <property name="loop">1</property>
  <property name="meta.media.width">1921</property>
  <property name="meta.media.height">1080</property>
  <property name="mlt_service">pixbuf</property>
  <property name="kdenlive:folderid">-1</property>
  <property name="kdenlive:duration">150</property>
  <property name="kdenlive:file_size">69578</property>
  <property name="kdenlive:file_hash">d166d80cd429e979249c0045f7be6dcb</property>
 </producer>
 <producer id="35" out="149" in="0">
  <property name="length">150</property>
  <property name="eof">pause</property>
  <property name="resource">arraystack-i-images/arraystack-i-34.png</property>
  <property name="ttl">25</property>
  <property name="aspect_ratio">1</property>
  <property name="progressive">1</property>
  <property name="seekable">1</property>
  <property name="loop">1</property>
  <property name="meta.media.width">1921</property>
  <property name="meta.media.height">1080</property>
  <property name="mlt_service">pixbuf</property>
  <property name="kdenlive:folderid">-1</property>
  <property name="kdenlive:duration">150</property>
  <property name="kdenlive:file_size">72157</property>
  <property name="kdenlive:file_hash">8baa8573dca21dd1183cc427a2b3df37</property>
 </producer>
 <producer id="36" out="149" in="0">
  <property name="length">150</property>
  <property name="eof">pause</property>
  <property name="resource">arraystack-i-images/arraystack-i-35.png</property>
  <property name="ttl">25</property>
  <property name="aspect_ratio">1</property>
  <property name="progressive">1</property>
  <property name="seekable">1</property>
  <property name="loop">1</property>
  <property name="meta.media.width">1921</property>
  <property name="meta.media.height">1080</property>
  <property name="mlt_service">pixbuf</property>
  <property name="kdenlive:folderid">-1</property>
  <property name="kdenlive:duration">150</property>
  <property name="kdenlive:file_size">73862</property>
  <property name="kdenlive:file_hash">3ec88cf17a77e6c9d8842a1664f9b6d4</property>
 </producer>
 <producer id="37" out="149" in="0">
  <property name="length">150</property>
  <property name="eof">pause</property>
  <property name="resource">arraystack-i-images/arraystack-i-36.png</property>
  <property name="ttl">25</property>
  <property name="aspect_ratio">1</property>
  <property name="progressive">1</property>
  <property name="seekable">1</property>
  <property name="loop">1</property>
  <property name="meta.media.width">1921</property>
  <property name="meta.media.height">1080</property>
  <property name="mlt_service">pixbuf</property>
  <property name="kdenlive:folderid">-1</property>
  <property name="kdenlive:duration">150</property>
  <property name="kdenlive:file_size">76696</property>
  <property name="kdenlive:file_hash">1ee077967aa59e060036623b8936c46e</property>
 </producer>
 <producer id="38" out="149" in="0">
  <property name="length">150</property>
  <property name="eof">pause</property>
  <property name="resource">arraystack-i-images/arraystack-i-37.png</property>
  <property name="ttl">25</property>
  <property name="aspect_ratio">1</property>
  <property name="progressive">1</property>
  <property name="seekable">1</property>
  <property name="loop">1</property>
  <property name="meta.media.width">1921</property>
  <property name="meta.media.height">1080</property>
  <property name="mlt_service">pixbuf</property>
  <property name="kdenlive:folderid">-1</property>
  <property name="kdenlive:duration">150</property>
  <property name="kdenlive:file_size">77633</property>
  <property name="kdenlive:file_hash">95ff50bb7b5d4b4b16164d4cc68292f7</property>
 </producer>
 <producer id="39" out="149" in="0">
  <property name="length">150</property>
  <property name="eof">pause</property>
  <property name="resource">arraystack-i-images/arraystack-i-38.png</property>
  <property name="ttl">25</property>
  <property name="aspect_ratio">1</property>
  <property name="progressive">1</property>
  <property name="seekable">1</property>
  <property name="loop">1</property>
  <property name="meta.media.width">1921</property>
  <property name="meta.media.height">1080</property>
  <property name="mlt_service">pixbuf</property>
  <property name="kdenlive:folderid">-1</property>
  <property name="kdenlive:duration">150</property>
  <property name="kdenlive:file_size">78995</property>
  <property name="kdenlive:file_hash">0a179bb1e83e6697bafce0760b2d9f14</property>
 </producer>
 <producer id="40" out="149" in="0">
  <property name="length">150</property>
  <property name="eof">pause</property>
  <property name="resource">arraystack-i-images/arraystack-i-39.png</property>
  <property name="ttl">25</property>
  <property name="aspect_ratio">1</property>
  <property name="progressive">1</property>
  <property name="seekable">1</property>
  <property name="loop">1</property>
  <property name="meta.media.width">1921</property>
  <property name="meta.media.height">1080</property>
  <property name="mlt_service">pixbuf</property>
  <property name="kdenlive:folderid">-1</property>
  <property name="kdenlive:duration">150</property>
  <property name="kdenlive:file_size">81070</property>
  <property name="kdenlive:file_hash">10c64b1f4e8611a03032d8c08224693f</property>
 </producer>
 <producer id="41" out="149" in="0">
  <property name="length">150</property>
  <property name="eof">pause</property>
  <property name="resource">arraystack-i-images/arraystack-i-40.png</property>
  <property name="ttl">25</property>
  <property name="aspect_ratio">1</property>
  <property name="progressive">1</property>
  <property name="seekable">1</property>
  <property name="loop">1</property>
  <property name="meta.media.width">1921</property>
  <property name="meta.media.height">1080</property>
  <property name="mlt_service">pixbuf</property>
  <property name="kdenlive:folderid">-1</property>
  <property name="kdenlive:duration">150</property>
  <property name="kdenlive:file_size">84115</property>
  <property name="kdenlive:file_hash">1276f023719ef490a2bfff9149d739d8</property>
 </producer>
 <producer id="42" out="202" in="0">
  <property name="length">203</property>
  <property name="eof">pause</property>
  <property name="resource">arraystack-i-images/arraystack-i-41.png</property>
  <property name="ttl">25</property>
  <property name="aspect_ratio">1</property>
  <property name="progressive">1</property>
  <property name="seekable">1</property>
  <property name="loop">1</property>
  <property name="meta.media.width">1921</property>
  <property name="meta.media.height">1080</property>
  <property name="mlt_service">pixbuf</property>
  <property name="kdenlive:folderid">-1</property>
  <property name="kdenlive:duration">150</property>
  <property name="kdenlive:file_size">84117</property>
  <property name="kdenlive:file_hash">b6a3afc9bcc88940fba5068583dc6c89</property>
 </producer>
 <producer id="43" out="166" in="0">
  <property name="length">167</property>
  <property name="eof">pause</property>
  <property name="resource">arraystack-i-images/arraystack-i-42.png</property>
  <property name="ttl">25</property>
  <property name="aspect_ratio">1</property>
  <property name="progressive">1</property>
  <property name="seekable">1</property>
  <property name="loop">1</property>
  <property name="meta.media.width">1921</property>
  <property name="meta.media.height">1080</property>
  <property name="mlt_service">pixbuf</property>
  <property name="kdenlive:folderid">-1</property>
  <property name="kdenlive:duration">150</property>
  <property name="kdenlive:file_size">66714</property>
  <property name="kdenlive:file_hash">d1ceffb7a495f2cbdab3d13b86d7ab55</property>
 </producer>
 <producer id="44" out="149" in="0">
  <property name="length">150</property>
  <property name="eof">pause</property>
  <property name="resource">arraystack-i-images/arraystack-i-43.png</property>
  <property name="ttl">25</property>
  <property name="aspect_ratio">1</property>
  <property name="progressive">1</property>
  <property name="seekable">1</property>
  <property name="loop">1</property>
  <property name="meta.media.width">1921</property>
  <property name="meta.media.height">1080</property>
  <property name="mlt_service">pixbuf</property>
  <property name="kdenlive:folderid">-1</property>
  <property name="kdenlive:duration">150</property>
  <property name="kdenlive:file_size">67579</property>
  <property name="kdenlive:file_hash">78616d5732236a289d68c02a85e1a393</property>
 </producer>
 <producer id="45" out="149" in="0">
  <property name="length">150</property>
  <property name="eof">pause</property>
  <property name="resource">arraystack-i-images/arraystack-i-44.png</property>
  <property name="ttl">25</property>
  <property name="aspect_ratio">1</property>
  <property name="progressive">1</property>
  <property name="seekable">1</property>
  <property name="loop">1</property>
  <property name="meta.media.width">1921</property>
  <property name="meta.media.height">1080</property>
  <property name="mlt_service">pixbuf</property>
  <property name="kdenlive:folderid">-1</property>
  <property name="kdenlive:duration">150</property>
  <property name="kdenlive:file_size">67593</property>
  <property name="kdenlive:file_hash">196b3fa6c41480da3ffb0f1dc78171cf</property>
 </producer>
 <producer id="46" out="149" in="0">
  <property name="length">150</property>
  <property name="eof">pause</property>
  <property name="resource">arraystack-i-images/arraystack-i-45.png</property>
  <property name="ttl">25</property>
  <property name="aspect_ratio">1</property>
  <property name="progressive">1</property>
  <property name="seekable">1</property>
  <property name="loop">1</property>
  <property name="meta.media.width">1921</property>
  <property name="meta.media.height">1080</property>
  <property name="mlt_service">pixbuf</property>
  <property name="kdenlive:folderid">-1</property>
  <property name="kdenlive:duration">150</property>
  <property name="kdenlive:file_size">67592</property>
  <property name="kdenlive:file_hash">f451cd4876b05fede66320080eb6186d</property>
 </producer>
 <producer id="47" out="149" in="0">
  <property name="length">150</property>
  <property name="eof">pause</property>
  <property name="resource">arraystack-i-images/arraystack-i-46.png</property>
  <property name="ttl">25</property>
  <property name="aspect_ratio">1</property>
  <property name="progressive">1</property>
  <property name="seekable">1</property>
  <property name="loop">1</property>
  <property name="meta.media.width">1921</property>
  <property name="meta.media.height">1080</property>
  <property name="mlt_service">pixbuf</property>
  <property name="kdenlive:folderid">-1</property>
  <property name="kdenlive:duration">150</property>
  <property name="kdenlive:file_size">67599</property>
  <property name="kdenlive:file_hash">3eaccefc816351887594f0982f6387bd</property>
 </producer>
 <producer id="48" out="149" in="0">
  <property name="length">150</property>
  <property name="eof">pause</property>
  <property name="resource">arraystack-i-images/arraystack-i-47.png</property>
  <property name="ttl">25</property>
  <property name="aspect_ratio">1</property>
  <property name="progressive">1</property>
  <property name="seekable">1</property>
  <property name="loop">1</property>
  <property name="meta.media.width">1921</property>
  <property name="meta.media.height">1080</property>
  <property name="mlt_service">pixbuf</property>
  <property name="kdenlive:folderid">-1</property>
  <property name="kdenlive:duration">150</property>
  <property name="kdenlive:file_size">69502</property>
  <property name="kdenlive:file_hash">bfc8c1e304efe229d6a35a453dcff4ef</property>
 </producer>
 <producer id="49" out="149" in="0">
  <property name="length">150</property>
  <property name="eof">pause</property>
  <property name="resource">arraystack-i-images/arraystack-i-48.png</property>
  <property name="ttl">25</property>
  <property name="aspect_ratio">1</property>
  <property name="progressive">1</property>
  <property name="seekable">1</property>
  <property name="loop">1</property>
  <property name="meta.media.width">1921</property>
  <property name="meta.media.height">1080</property>
  <property name="mlt_service">pixbuf</property>
  <property name="kdenlive:folderid">-1</property>
  <property name="kdenlive:duration">150</property>
  <property name="kdenlive:file_size">62976</property>
  <property name="kdenlive:file_hash">8034aa75d17d1a9d295807a64da7ff73</property>
 </producer>
 <producer id="50" out="149" in="0">
  <property name="length">150</property>
  <property name="eof">pause</property>
  <property name="resource">arraystack-i-images/arraystack-i-49.png</property>
  <property name="ttl">25</property>
  <property name="aspect_ratio">1</property>
  <property name="progressive">1</property>
  <property name="seekable">1</property>
  <property name="loop">1</property>
  <property name="meta.media.width">1921</property>
  <property name="meta.media.height">1080</property>
  <property name="mlt_service">pixbuf</property>
  <property name="kdenlive:folderid">-1</property>
  <property name="kdenlive:duration">150</property>
  <property name="kdenlive:file_size">67669</property>
  <property name="kdenlive:file_hash">98b3dbb66a79c5322e9e3fca92b2ca64</property>
 </producer>
 <producer id="51" out="149" in="0">
  <property name="length">150</property>
  <property name="eof">pause</property>
  <property name="resource">arraystack-i-images/arraystack-i-50.png</property>
  <property name="ttl">25</property>
  <property name="aspect_ratio">1</property>
  <property name="progressive">1</property>
  <property name="seekable">1</property>
  <property name="loop">1</property>
  <property name="meta.media.width">1921</property>
  <property name="meta.media.height">1080</property>
  <property name="mlt_service">pixbuf</property>
  <property name="kdenlive:folderid">-1</property>
  <property name="kdenlive:duration">150</property>
  <property name="kdenlive:file_size">68261</property>
  <property name="kdenlive:file_hash">6834ddaedb9fd3203d7c3f1d7a6aa459</property>
 </producer>
 <producer id="52" out="149" in="0">
  <property name="length">150</property>
  <property name="eof">pause</property>
  <property name="resource">arraystack-i-images/arraystack-i-51.png</property>
  <property name="ttl">25</property>
  <property name="aspect_ratio">1</property>
  <property name="progressive">1</property>
  <property name="seekable">1</property>
  <property name="loop">1</property>
  <property name="meta.media.width">1921</property>
  <property name="meta.media.height">1080</property>
  <property name="mlt_service">pixbuf</property>
  <property name="kdenlive:folderid">-1</property>
  <property name="kdenlive:duration">150</property>
  <property name="kdenlive:file_size">66712</property>
  <property name="kdenlive:file_hash">d6c348b194de60fc7a8b1d71ab4e0280</property>
 </producer>
 <producer id="53" out="149" in="0">
  <property name="length">150</property>
  <property name="eof">pause</property>
  <property name="resource">arraystack-i-images/arraystack-i-52.png</property>
  <property name="ttl">25</property>
  <property name="aspect_ratio">1</property>
  <property name="progressive">1</property>
  <property name="seekable">1</property>
  <property name="loop">1</property>
  <property name="meta.media.width">1921</property>
  <property name="meta.media.height">1080</property>
  <property name="mlt_service">pixbuf</property>
  <property name="kdenlive:folderid">-1</property>
  <property name="kdenlive:duration">150</property>
  <property name="kdenlive:file_size">67740</property>
  <property name="kdenlive:file_hash">807f0c49811dc8c5a3076da89d5f2635</property>
 </producer>
 <producer id="54" out="149" in="0">
  <property name="length">150</property>
  <property name="eof">pause</property>
  <property name="resource">arraystack-i-images/arraystack-i-53.png</property>
  <property name="ttl">25</property>
  <property name="aspect_ratio">1</property>
  <property name="progressive">1</property>
  <property name="seekable">1</property>
  <property name="loop">1</property>
  <property name="meta.media.width">1921</property>
  <property name="meta.media.height">1080</property>
  <property name="mlt_service">pixbuf</property>
  <property name="kdenlive:folderid">-1</property>
  <property name="kdenlive:duration">150</property>
  <property name="kdenlive:file_size">66696</property>
  <property name="kdenlive:file_hash">b8048360f365957312c9a12c8867513a</property>
 </producer>
 <producer id="55" out="149" in="0">
  <property name="length">150</property>
  <property name="eof">pause</property>
  <property name="resource">arraystack-i-images/arraystack-i-54.png</property>
  <property name="ttl">25</property>
  <property name="aspect_ratio">1</property>
  <property name="progressive">1</property>
  <property name="seekable">1</property>
  <property name="loop">1</property>
  <property name="meta.media.width">1921</property>
  <property name="meta.media.height">1080</property>
  <property name="mlt_service">pixbuf</property>
  <property name="kdenlive:folderid">-1</property>
  <property name="kdenlive:duration">150</property>
  <property name="kdenlive:file_size">66695</property>
  <property name="kdenlive:file_hash">32f96d7cb03ee8619996f50e4c4f306e</property>
 </producer>
 <producer id="56" out="149" in="0">
  <property name="length">150</property>
  <property name="eof">pause</property>
  <property name="resource">arraystack-i-images/arraystack-i-55.png</property>
  <property name="ttl">25</property>
  <property name="aspect_ratio">1</property>
  <property name="progressive">1</property>
  <property name="seekable">1</property>
  <property name="loop">1</property>
  <property name="meta.media.width">1921</property>
  <property name="meta.media.height">1080</property>
  <property name="mlt_service">pixbuf</property>
  <property name="kdenlive:folderid">-1</property>
  <property name="kdenlive:duration">150</property>
  <property name="kdenlive:file_size">66697</property>
  <property name="kdenlive:file_hash">7d758cfb23f49d79c55e1a31881b210b</property>
 </producer>
 <producer id="57" out="149" in="0">
  <property name="length">150</property>
  <property name="eof">pause</property>
  <property name="resource">arraystack-i-images/arraystack-i-56.png</property>
  <property name="ttl">25</property>
  <property name="aspect_ratio">1</property>
  <property name="progressive">1</property>
  <property name="seekable">1</property>
  <property name="loop">1</property>
  <property name="meta.media.width">1921</property>
  <property name="meta.media.height">1080</property>
  <property name="mlt_service">pixbuf</property>
  <property name="kdenlive:folderid">-1</property>
  <property name="kdenlive:duration">150</property>
  <property name="kdenlive:file_size">66678</property>
  <property name="kdenlive:file_hash">f5ad8450307a6c608246db195446d03f</property>
 </producer>
 <producer id="58" out="149" in="0">
  <property name="length">150</property>
  <property name="eof">pause</property>
  <property name="resource">arraystack-i-images/arraystack-i-57.png</property>
  <property name="ttl">25</property>
  <property name="aspect_ratio">1</property>
  <property name="progressive">1</property>
  <property name="seekable">1</property>
  <property name="loop">1</property>
  <property name="meta.media.width">1921</property>
  <property name="meta.media.height">1080</property>
  <property name="mlt_service">pixbuf</property>
  <property name="kdenlive:folderid">-1</property>
  <property name="kdenlive:duration">150</property>
  <property name="kdenlive:file_size">66661</property>
  <property name="kdenlive:file_hash">8e0448c40ab0c24a647825558aca8a8c</property>
 </producer>
 <producer id="59" out="149" in="0">
  <property name="length">150</property>
  <property name="eof">pause</property>
  <property name="resource">arraystack-i-images/arraystack-i-58.png</property>
  <property name="ttl">25</property>
  <property name="aspect_ratio">1</property>
  <property name="progressive">1</property>
  <property name="seekable">1</property>
  <property name="loop">1</property>
  <property name="meta.media.width">1921</property>
  <property name="meta.media.height">1080</property>
  <property name="mlt_service">pixbuf</property>
  <property name="kdenlive:folderid">-1</property>
  <property name="kdenlive:duration">150</property>
  <property name="kdenlive:file_size">61834</property>
  <property name="kdenlive:file_hash">9ff0cb288df554771be2a778f5b25c1d</property>
 </producer>
 <producer id="60" out="149" in="0">
  <property name="length">150</property>
  <property name="eof">pause</property>
  <property name="resource">arraystack-i-images/arraystack-i-59.png</property>
  <property name="ttl">25</property>
  <property name="aspect_ratio">1</property>
  <property name="progressive">1</property>
  <property name="seekable">1</property>
  <property name="loop">1</property>
  <property name="meta.media.width">1921</property>
  <property name="meta.media.height">1080</property>
  <property name="mlt_service">pixbuf</property>
  <property name="kdenlive:folderid">-1</property>
  <property name="kdenlive:duration">150</property>
  <property name="kdenlive:file_size">66996</property>
  <property name="kdenlive:file_hash">6ce235a07012c1082e021605353825b2</property>
 </producer>
 <producer id="61" out="149" in="0">
  <property name="length">150</property>
  <property name="eof">pause</property>
  <property name="resource">arraystack-i-images/arraystack-i-60.png</property>
  <property name="ttl">25</property>
  <property name="aspect_ratio">1</property>
  <property name="progressive">1</property>
  <property name="seekable">1</property>
  <property name="loop">1</property>
  <property name="meta.media.width">1921</property>
  <property name="meta.media.height">1080</property>
  <property name="mlt_service">pixbuf</property>
  <property name="kdenlive:folderid">-1</property>
  <property name="kdenlive:duration">150</property>
  <property name="kdenlive:file_size">67317</property>
  <property name="kdenlive:file_hash">84dd29cd8f40c41ac973f69a7ac551bf</property>
 </producer>
 <producer id="62" out="149" in="0">
  <property name="length">150</property>
  <property name="eof">pause</property>
  <property name="resource">arraystack-i-images/arraystack-i-61.png</property>
  <property name="ttl">25</property>
  <property name="aspect_ratio">1</property>
  <property name="progressive">1</property>
  <property name="seekable">1</property>
  <property name="loop">1</property>
  <property name="meta.media.width">1921</property>
  <property name="meta.media.height">1080</property>
  <property name="mlt_service">pixbuf</property>
  <property name="kdenlive:folderid">-1</property>
  <property name="kdenlive:duration">150</property>
  <property name="kdenlive:file_size">64274</property>
  <property name="kdenlive:file_hash">4f565ea8dc6c05041d82d070229b3769</property>
 </producer>
 <producer id="63" out="149" in="0">
  <property name="length">150</property>
  <property name="eof">pause</property>
  <property name="resource">arraystack-i-images/arraystack-i-62.png</property>
  <property name="ttl">25</property>
  <property name="aspect_ratio">1</property>
  <property name="progressive">1</property>
  <property name="seekable">1</property>
  <property name="loop">1</property>
  <property name="meta.media.width">1921</property>
  <property name="meta.media.height">1080</property>
  <property name="mlt_service">pixbuf</property>
  <property name="kdenlive:folderid">-1</property>
  <property name="kdenlive:duration">150</property>
  <property name="kdenlive:file_size">64339</property>
  <property name="kdenlive:file_hash">0294e7604426ec53f000b6fdc9647cdd</property>
 </producer>
 <producer id="64" out="164" in="0">
  <property name="length">165</property>
  <property name="eof">pause</property>
  <property name="resource">arraystack-i-images/arraystack-i-63.png</property>
  <property name="ttl">25</property>
  <property name="aspect_ratio">1</property>
  <property name="progressive">1</property>
  <property name="seekable">1</property>
  <property name="loop">1</property>
  <property name="meta.media.width">1921</property>
  <property name="meta.media.height">1080</property>
  <property name="mlt_service">pixbuf</property>
  <property name="kdenlive:folderid">-1</property>
  <property name="kdenlive:duration">150</property>
  <property name="kdenlive:file_size">59029</property>
  <property name="kdenlive:file_hash">8578e03cdc6e298cc1485ab22f08893a</property>
 </producer>
 <producer id="65" out="230" in="0">
  <property name="length">231</property>
  <property name="eof">pause</property>
  <property name="resource">arraystack-i-images/arraystack-i-64.png</property>
  <property name="ttl">25</property>
  <property name="aspect_ratio">1</property>
  <property name="progressive">1</property>
  <property name="seekable">1</property>
  <property name="loop">1</property>
  <property name="meta.media.width">1921</property>
  <property name="meta.media.height">1080</property>
  <property name="mlt_service">pixbuf</property>
  <property name="kdenlive:folderid">-1</property>
  <property name="kdenlive:duration">150</property>
  <property name="kdenlive:file_size">65603</property>
  <property name="kdenlive:file_hash">7eb541e27dde0056c444bd66bfcaf912</property>
 </producer>
 <producer id="66" out="175" in="0">
  <property name="length">176</property>
  <property name="eof">pause</property>
  <property name="resource">arraystack-i-images/arraystack-i-65.png</property>
  <property name="ttl">25</property>
  <property name="aspect_ratio">1</property>
  <property name="progressive">1</property>
  <property name="seekable">1</property>
  <property name="loop">1</property>
  <property name="meta.media.width">1921</property>
  <property name="meta.media.height">1080</property>
  <property name="mlt_service">pixbuf</property>
  <property name="kdenlive:folderid">-1</property>
  <property name="kdenlive:duration">150</property>
  <property name="kdenlive:file_size">65796</property>
  <property name="kdenlive:file_hash">7d458542a60edf587081e483190c5802</property>
 </producer>
 <producer id="67" out="179" in="0">
  <property name="length">180</property>
  <property name="eof">pause</property>
  <property name="resource">arraystack-i-images/arraystack-i-66.png</property>
  <property name="ttl">25</property>
  <property name="aspect_ratio">1</property>
  <property name="progressive">1</property>
  <property name="seekable">1</property>
  <property name="loop">1</property>
  <property name="meta.media.width">1921</property>
  <property name="meta.media.height">1080</property>
  <property name="mlt_service">pixbuf</property>
  <property name="kdenlive:folderid">-1</property>
  <property name="kdenlive:duration">150</property>
  <property name="kdenlive:file_size">53048</property>
  <property name="kdenlive:file_hash">843593ab83f2bdc159c0903e836dbd77</property>
 </producer>
 <producer id="68" out="272" in="0">
  <property name="length">273</property>
  <property name="eof">pause</property>
  <property name="resource">arraystack-i-images/arraystack-i-67.png</property>
  <property name="ttl">25</property>
  <property name="aspect_ratio">1</property>
  <property name="progressive">1</property>
  <property name="seekable">1</property>
  <property name="loop">1</property>
  <property name="meta.media.width">1921</property>
  <property name="meta.media.height">1080</property>
  <property name="mlt_service">pixbuf</property>
  <property name="kdenlive:folderid">-1</property>
  <property name="kdenlive:duration">150</property>
  <property name="kdenlive:file_size">67988</property>
  <property name="kdenlive:file_hash">290b308ce7ce1ca86e78bb1d4899833a</property>
 </producer>
 <producer id="69" out="149" in="0">
  <property name="length">150</property>
  <property name="eof">pause</property>
  <property name="resource">arraystack-i-images/arraystack-i-68.png</property>
  <property name="ttl">25</property>
  <property name="aspect_ratio">1</property>
  <property name="progressive">1</property>
  <property name="seekable">1</property>
  <property name="loop">1</property>
  <property name="meta.media.width">1921</property>
  <property name="meta.media.height">1080</property>
  <property name="mlt_service">pixbuf</property>
  <property name="kdenlive:folderid">-1</property>
  <property name="kdenlive:duration">150</property>
  <property name="kdenlive:file_size">54534</property>
  <property name="kdenlive:file_hash">130dce8618bfc0573096b56a61d3a59d</property>
 </producer>
 <producer id="70" out="149" in="0">
  <property name="length">150</property>
  <property name="eof">pause</property>
  <property name="resource">arraystack-i-images/arraystack-i-69.png</property>
  <property name="ttl">25</property>
  <property name="aspect_ratio">1</property>
  <property name="progressive">1</property>
  <property name="seekable">1</property>
  <property name="loop">1</property>
  <property name="meta.media.width">1921</property>
  <property name="meta.media.height">1080</property>
  <property name="mlt_service">pixbuf</property>
  <property name="kdenlive:folderid">-1</property>
  <property name="kdenlive:duration">150</property>
  <property name="kdenlive:file_size">54325</property>
  <property name="kdenlive:file_hash">1c73e8cd6f442f20c2293a9a3294cf51</property>
 </producer>
 <producer id="71" out="149" in="0">
  <property name="length">150</property>
  <property name="eof">pause</property>
  <property name="resource">arraystack-i-images/arraystack-i-70.png</property>
  <property name="ttl">25</property>
  <property name="aspect_ratio">1</property>
  <property name="progressive">1</property>
  <property name="seekable">1</property>
  <property name="loop">1</property>
  <property name="meta.media.width">1921</property>
  <property name="meta.media.height">1080</property>
  <property name="mlt_service">pixbuf</property>
  <property name="kdenlive:folderid">-1</property>
  <property name="kdenlive:duration">150</property>
  <property name="kdenlive:file_size">56244</property>
  <property name="kdenlive:file_hash">54dcbf6e4b3bb66069e25b909a3c6d7a</property>
 </producer>
 <producer id="72" out="149" in="0">
  <property name="length">150</property>
  <property name="eof">pause</property>
  <property name="resource">arraystack-i-images/arraystack-i-71.png</property>
  <property name="ttl">25</property>
  <property name="aspect_ratio">1</property>
  <property name="progressive">1</property>
  <property name="seekable">1</property>
  <property name="loop">1</property>
  <property name="meta.media.width">1921</property>
  <property name="meta.media.height">1080</property>
  <property name="mlt_service">pixbuf</property>
  <property name="kdenlive:folderid">-1</property>
  <property name="kdenlive:duration">150</property>
  <property name="kdenlive:file_size">58294</property>
  <property name="kdenlive:file_hash">7506aa1bc40c3a714c26e47cc329a942</property>
 </producer>
 <producer id="73" out="149" in="0">
  <property name="length">150</property>
  <property name="eof">pause</property>
  <property name="resource">arraystack-i-images/arraystack-i-72.png</property>
  <property name="ttl">25</property>
  <property name="aspect_ratio">1</property>
  <property name="progressive">1</property>
  <property name="seekable">1</property>
  <property name="loop">1</property>
  <property name="meta.media.width">1921</property>
  <property name="meta.media.height">1080</property>
  <property name="mlt_service">pixbuf</property>
  <property name="kdenlive:folderid">-1</property>
  <property name="kdenlive:duration">150</property>
  <property name="kdenlive:file_size">59759</property>
  <property name="kdenlive:file_hash">415ced3079ee961f22252d8600044ee8</property>
 </producer>
 <producer id="74" out="149" in="0">
  <property name="length">150</property>
  <property name="eof">pause</property>
  <property name="resource">arraystack-i-images/arraystack-i-73.png</property>
  <property name="ttl">25</property>
  <property name="aspect_ratio">1</property>
  <property name="progressive">1</property>
  <property name="seekable">1</property>
  <property name="loop">1</property>
  <property name="meta.media.width">1921</property>
  <property name="meta.media.height">1080</property>
  <property name="mlt_service">pixbuf</property>
  <property name="kdenlive:folderid">-1</property>
  <property name="kdenlive:duration">150</property>
  <property name="kdenlive:file_size">62535</property>
  <property name="kdenlive:file_hash">52b59e8cb8f2817aa5f23abc456c73ef</property>
 </producer>
 <producer id="75" out="201" in="0">
  <property name="length">202</property>
  <property name="eof">pause</property>
  <property name="resource">arraystack-i-images/arraystack-i-74.png</property>
  <property name="ttl">25</property>
  <property name="aspect_ratio">1</property>
  <property name="progressive">1</property>
  <property name="seekable">1</property>
  <property name="loop">1</property>
  <property name="meta.media.width">1921</property>
  <property name="meta.media.height">1080</property>
  <property name="mlt_service">pixbuf</property>
  <property name="kdenlive:folderid">-1</property>
  <property name="kdenlive:duration">150</property>
  <property name="kdenlive:file_size">62584</property>
  <property name="kdenlive:file_hash">8a6293de2a9b194caad7449f5a281401</property>
 </producer>
 <producer id="76" out="149" in="0">
  <property name="length">150</property>
  <property name="eof">pause</property>
  <property name="resource">arraystack-i-images/arraystack-i-75.png</property>
  <property name="ttl">25</property>
  <property name="aspect_ratio">1</property>
  <property name="progressive">1</property>
  <property name="seekable">1</property>
  <property name="loop">1</property>
  <property name="meta.media.width">1921</property>
  <property name="meta.media.height">1080</property>
  <property name="mlt_service">pixbuf</property>
  <property name="kdenlive:folderid">-1</property>
  <property name="kdenlive:duration">150</property>
  <property name="kdenlive:file_size">50879</property>
  <property name="kdenlive:file_hash">6823f856d6a6bacd152692b5aa6e4ce6</property>
 </producer>
 <producer id="77" out="400" in="0">
  <property name="length">401</property>
  <property name="eof">pause</property>
  <property name="resource">arraystack-i-images/arraystack-i-76.png</property>
  <property name="ttl">25</property>
  <property name="aspect_ratio">1</property>
  <property name="progressive">1</property>
  <property name="seekable">1</property>
  <property name="loop">1</property>
  <property name="meta.media.width">1921</property>
  <property name="meta.media.height">1080</property>
  <property name="mlt_service">pixbuf</property>
  <property name="kdenlive:folderid">-1</property>
  <property name="kdenlive:duration">150</property>
  <property name="kdenlive:file_size">47509</property>
  <property name="kdenlive:file_hash">8b91cfa019a79a2d2562f68f4d815720</property>
 </producer>
 <producer id="78" out="163" in="0">
  <property name="length">164</property>
  <property name="eof">pause</property>
  <property name="resource">arraystack-i-images/arraystack-i-77.png</property>
  <property name="ttl">25</property>
  <property name="aspect_ratio">1</property>
  <property name="progressive">1</property>
  <property name="seekable">1</property>
  <property name="loop">1</property>
  <property name="meta.media.width">1921</property>
  <property name="meta.media.height">1080</property>
  <property name="mlt_service">pixbuf</property>
  <property name="kdenlive:folderid">-1</property>
  <property name="kdenlive:duration">150</property>
  <property name="kdenlive:file_size">61395</property>
  <property name="kdenlive:file_hash">8f8b938d6a8c5549b552f0a30821113b</property>
 </producer>
 <producer id="79" out="149" in="0">
  <property name="length">150</property>
  <property name="eof">pause</property>
  <property name="resource">arraystack-i-images/arraystack-i-78.png</property>
  <property name="ttl">25</property>
  <property name="aspect_ratio">1</property>
  <property name="progressive">1</property>
  <property name="seekable">1</property>
  <property name="loop">1</property>
  <property name="meta.media.width">1921</property>
  <property name="meta.media.height">1080</property>
  <property name="mlt_service">pixbuf</property>
  <property name="kdenlive:folderid">-1</property>
  <property name="kdenlive:duration">150</property>
  <property name="kdenlive:file_size">69436</property>
  <property name="kdenlive:file_hash">f32e2d1cb86542d29156491245883cff</property>
 </producer>
 <producer id="80" out="245" in="0">
  <property name="length">246</property>
  <property name="eof">pause</property>
  <property name="resource">arraystack-i-images/arraystack-i-79.png</property>
  <property name="ttl">25</property>
  <property name="aspect_ratio">1</property>
  <property name="progressive">1</property>
  <property name="seekable">1</property>
  <property name="loop">1</property>
  <property name="meta.media.width">1921</property>
  <property name="meta.media.height">1080</property>
  <property name="mlt_service">pixbuf</property>
  <property name="kdenlive:folderid">-1</property>
  <property name="kdenlive:duration">150</property>
  <property name="kdenlive:file_size">78764</property>
  <property name="kdenlive:file_hash">0ef51b14d67692c78661fa57ed720827</property>
 </producer>
 <producer id="81" out="284" in="0">
  <property name="length">285</property>
  <property name="eof">pause</property>
  <property name="resource">arraystack-i-images/arraystack-i-80.png</property>
  <property name="ttl">25</property>
  <property name="aspect_ratio">1</property>
  <property name="progressive">1</property>
  <property name="seekable">1</property>
  <property name="loop">1</property>
  <property name="meta.media.width">1921</property>
  <property name="meta.media.height">1080</property>
  <property name="mlt_service">pixbuf</property>
  <property name="kdenlive:folderid">-1</property>
  <property name="kdenlive:duration">150</property>
  <property name="kdenlive:file_size">89315</property>
  <property name="kdenlive:file_hash">34735e5097bb62bfce7da5e655bfdefe</property>
 </producer>
 <producer id="82" out="499" in="0">
  <property name="length">500</property>
  <property name="eof">pause</property>
  <property name="resource">arraystack-i-images/arraystack-i-81.png</property>
  <property name="ttl">25</property>
  <property name="aspect_ratio">1</property>
  <property name="progressive">1</property>
  <property name="seekable">1</property>
  <property name="loop">1</property>
  <property name="meta.media.width">1921</property>
  <property name="meta.media.height">1080</property>
  <property name="mlt_service">pixbuf</property>
  <property name="kdenlive:folderid">-1</property>
  <property name="kdenlive:duration">150</property>
  <property name="kdenlive:file_size">99533</property>
  <property name="kdenlive:file_hash">61baa3113f0edca4ed46372b8be79447</property>
 </producer>
 <producer id="83" out="149" in="0">
  <property name="length">150</property>
  <property name="eof">pause</property>
  <property name="resource">arraystack-i-images/arraystack-i-82.png</property>
  <property name="ttl">25</property>
  <property name="aspect_ratio">1</property>
  <property name="progressive">1</property>
  <property name="seekable">1</property>
  <property name="loop">1</property>
  <property name="meta.media.width">1921</property>
  <property name="meta.media.height">1080</property>
  <property name="mlt_service">pixbuf</property>
  <property name="kdenlive:folderid">-1</property>
  <property name="kdenlive:duration">150</property>
  <property name="kdenlive:file_size">115098</property>
  <property name="kdenlive:file_hash">eb1939a418415efb343f30bc2899f204</property>
 </producer>
 <producer id="84" out="224" in="0">
  <property name="length">225</property>
  <property name="eof">pause</property>
  <property name="resource">arraystack-i-images/arraystack-i-83.png</property>
  <property name="ttl">25</property>
  <property name="aspect_ratio">1</property>
  <property name="progressive">1</property>
  <property name="seekable">1</property>
  <property name="loop">1</property>
  <property name="meta.media.width">1921</property>
  <property name="meta.media.height">1080</property>
  <property name="mlt_service">pixbuf</property>
  <property name="kdenlive:folderid">-1</property>
  <property name="kdenlive:duration">150</property>
  <property name="kdenlive:file_size">21165</property>
  <property name="kdenlive:file_hash">08709b4372baad8623d6d2f72a1b26fa</property>
 </producer>
 <playlist id="main bin">
  <property name="kdenlive:docproperties.audiotargettrack">2</property>
  <property name="kdenlive:docproperties.decimalPoint">.</property>
  <property name="kdenlive:docproperties.dirtypreviewchunks"/>
  <property name="kdenlive:docproperties.disablepreview">0</property>
  <property name="kdenlive:docproperties.documentid">1493736904049</property>
  <property name="kdenlive:docproperties.enableproxy">0</property>
  <property name="kdenlive:docproperties.generateimageproxy">0</property>
  <property name="kdenlive:docproperties.generateproxy">0</property>
  <property name="kdenlive:docproperties.kdenliveversion">17.04.0</property>
  <property name="kdenlive:docproperties.position">7556</property>
  <property name="kdenlive:docproperties.previewchunks"/>
  <property name="kdenlive:docproperties.previewextension"/>
  <property name="kdenlive:docproperties.previewparameters"/>
  <property name="kdenlive:docproperties.profile">atsc_1080p_30</property>
  <property name="kdenlive:docproperties.proxyextension">mpg</property>
  <property name="kdenlive:docproperties.proxyimageminsize">2000</property>
  <property name="kdenlive:docproperties.proxyminsize">1000</property>
  <property name="kdenlive:docproperties.proxyparams">-vf scale=640:-1 -g 5 -qscale 6 -ab 128k -vcodec mpeg2video -acodec mp2</property>
  <property name="kdenlive:docproperties.storagefolder">1493736904049</property>
  <property name="kdenlive:docproperties.version">0.95</property>
  <property name="kdenlive:docproperties.verticalzoom">1</property>
  <property name="kdenlive:docproperties.videotargettrack">3</property>
  <property name="kdenlive:docproperties.zonein">0</property>
  <property name="kdenlive:docproperties.zoneout">100</property>
  <property name="kdenlive:docproperties.zoom">4</property>
  <property name="kdenlive:documentnotes"/>
  <property name="kdenlive:clipgroups"/>
  <property name="xml_retain">1</property>
  <entry out="7816" producer="1" in="0"/>
  <entry out="149" producer="2" in="0"/>
  <entry out="149" producer="3" in="0"/>
  <entry out="149" producer="4" in="0"/>
  <entry out="149" producer="5" in="0"/>
  <entry out="149" producer="6" in="0"/>
  <entry out="149" producer="7" in="0"/>
  <entry out="149" producer="8" in="0"/>
  <entry out="149" producer="9" in="0"/>
  <entry out="149" producer="10" in="0"/>
  <entry out="149" producer="11" in="0"/>
  <entry out="149" producer="12" in="0"/>
  <entry out="149" producer="13" in="0"/>
  <entry out="149" producer="14" in="0"/>
  <entry out="149" producer="15" in="0"/>
  <entry out="149" producer="16" in="0"/>
  <entry out="149" producer="17" in="0"/>
  <entry out="149" producer="18" in="0"/>
  <entry out="149" producer="19" in="0"/>
  <entry out="149" producer="20" in="0"/>
  <entry out="149" producer="21" in="0"/>
  <entry out="149" producer="22" in="0"/>
  <entry out="149" producer="23" in="0"/>
  <entry out="149" producer="24" in="0"/>
  <entry out="149" producer="25" in="0"/>
  <entry out="149" producer="26" in="0"/>
  <entry out="149" producer="27" in="0"/>
  <entry out="149" producer="28" in="0"/>
  <entry out="149" producer="29" in="0"/>
  <entry out="149" producer="30" in="0"/>
  <entry out="149" producer="31" in="0"/>
  <entry out="149" producer="32" in="0"/>
  <entry out="149" producer="33" in="0"/>
  <entry out="149" producer="34" in="0"/>
  <entry out="149" producer="35" in="0"/>
  <entry out="149" producer="36" in="0"/>
  <entry out="149" producer="37" in="0"/>
  <entry out="149" producer="38" in="0"/>
  <entry out="149" producer="39" in="0"/>
  <entry out="149" producer="40" in="0"/>
  <entry out="149" producer="41" in="0"/>
  <entry out="149" producer="42" in="0"/>
  <entry out="149" producer="43" in="0"/>
  <entry out="149" producer="44" in="0"/>
  <entry out="149" producer="45" in="0"/>
  <entry out="149" producer="46" in="0"/>
  <entry out="149" producer="47" in="0"/>
  <entry out="149" producer="48" in="0"/>
  <entry out="149" producer="49" in="0"/>
  <entry out="149" producer="50" in="0"/>
  <entry out="149" producer="51" in="0"/>
  <entry out="149" producer="52" in="0"/>
  <entry out="149" producer="53" in="0"/>
  <entry out="149" producer="54" in="0"/>
  <entry out="149" producer="55" in="0"/>
  <entry out="149" producer="56" in="0"/>
  <entry out="149" producer="57" in="0"/>
  <entry out="149" producer="58" in="0"/>
  <entry out="149" producer="59" in="0"/>
  <entry out="149" producer="60" in="0"/>
  <entry out="149" producer="61" in="0"/>
  <entry out="149" producer="62" in="0"/>
  <entry out="149" producer="63" in="0"/>
  <entry out="149" producer="64" in="0"/>
  <entry out="149" producer="65" in="0"/>
  <entry out="149" producer="66" in="0"/>
  <entry out="149" producer="67" in="0"/>
  <entry out="149" producer="68" in="0"/>
  <entry out="149" producer="69" in="0"/>
  <entry out="149" producer="70" in="0"/>
  <entry out="149" producer="71" in="0"/>
  <entry out="149" producer="72" in="0"/>
  <entry out="149" producer="73" in="0"/>
  <entry out="149" producer="74" in="0"/>
  <entry out="149" producer="75" in="0"/>
  <entry out="149" producer="76" in="0"/>
  <entry out="149" producer="77" in="0"/>
  <entry out="149" producer="78" in="0"/>
  <entry out="149" producer="79" in="0"/>
  <entry out="149" producer="80" in="0"/>
  <entry out="149" producer="81" in="0"/>
  <entry out="149" producer="82" in="0"/>
  <entry out="149" producer="83" in="0"/>
  <entry out="149" producer="84" in="0"/>
 </playlist>
 <producer id="black" out="500" in="0">
  <property name="length">15000</property>
  <property name="eof">pause</property>
  <property name="resource">black</property>
  <property name="aspect_ratio">0</property>
  <property name="mlt_service">colour</property>
  <property name="set.test_audio">0</property>
 </producer>
 <playlist id="black_track">
  <entry out="7817" producer="black" in="0"/>
 </playlist>
 <playlist id="playlist1">
  <property name="kdenlive:track_name">Audio 2</property>
  <property name="kdenlive:audio_track">1</property>
 </playlist>
 <producer id="1_playlist2" title="Anonymous Submission" out="7816" in="0">
  <property name="length">00:04:20:17</property>
  <property name="eof">pause</property>
  <property name="resource">audio/arraystack-i.wav</property>
  <property name="audio_index">0</property>
  <property name="video_index">-1</property>
  <property name="mute_on_pause">1</property>
  <property name="mlt_service">avformat-novalidate</property>
  <property name="seekable">1</property>
  <property name="kdenlive:folderid">-1</property>
  <property name="kdenlive:file_size">45961294</property>
  <property name="kdenlive:file_hash">43a34150bc732c9147b958cde6c8f3d5</property>
  <property name="global_feed">1</property>
  <property name="xml">was here</property>
  <property name="meta.media.nb_streams">1</property>
  <property name="meta.media.0.stream.type">audio</property>
  <property name="meta.media.0.codec.sample_fmt">s16</property>
  <property name="meta.media.0.codec.sample_rate">44100</property>
  <property name="meta.media.0.codec.channels">2</property>
  <property name="meta.media.0.codec.name">pcm_s16le</property>
  <property name="meta.media.0.codec.long_name">PCM signed 16-bit little-endian</property>
  <property name="meta.media.0.codec.bit_rate">1411200</property>
  <property name="meta.attr.encoder.markup">Lavf56.40.101</property>
 </producer>
 <playlist id="playlist2">
  <property name="kdenlive:track_name">Audio 1</property>
  <property name="kdenlive:audio_track">1</property>
  <entry out="7816" producer="1_playlist2" in="0"/>
 </playlist>
 <playlist id="playlist3">
  <property name="kdenlive:track_name">Video 1</property>
  <entry out="80" producer="2" in="0"/>
  <entry out="290" producer="3" in="10"/>
  <entry out="179" producer="4" in="30"/>
  <entry out="295" producer="5" in="1"/>
  <entry out="95" producer="7" in="5"/>
  <entry out="32" producer="8" in="0"/>
  <entry out="81" producer="9" in="0"/>
  <entry out="102" producer="11" in="0"/>
  <entry out="49" producer="12" in="2"/>
  <entry out="89" producer="13" in="0"/>
  <entry out="94" producer="14" in="0"/>
  <entry out="150" producer="15" in="0"/>
  <entry out="74" producer="16" in="48"/>
  <entry out="128" producer="17" in="0"/>
  <entry out="39" producer="18" in="0"/>
  <entry out="39" producer="19" in="0"/>
  <entry out="39" producer="20" in="0"/>
  <entry out="130" producer="21" in="0"/>
  <entry out="146" producer="22" in="91"/>
  <entry out="86" producer="23" in="44"/>
  <entry out="113" producer="24" in="0"/>
  <entry out="137" producer="25" in="8"/>
  <entry out="47" producer="26" in="6"/>
  <entry out="111" producer="27" in="72"/>
  <entry out="173" producer="28" in="133"/>
  <entry out="149" producer="29" in="108"/>
  <entry out="305" producer="30" in="0"/>
  <entry out="126" producer="31" in="1"/>
  <entry out="103" producer="32" in="22"/>
  <entry out="39" producer="33" in="0"/>
  <entry out="39" producer="34" in="0"/>
  <entry out="39" producer="35" in="0"/>
  <entry out="39" producer="36" in="0"/>
  <entry out="113" producer="37" in="74"/>
  <entry out="125" producer="38" in="86"/>
  <entry out="129" producer="39" in="90"/>
  <entry out="147" producer="40" in="108"/>
  <entry out="102" producer="41" in="0"/>
  <entry out="201" producer="42" in="71"/>
  <entry out="161" producer="43" in="0"/>
  <entry out="26" producer="44" in="0"/>
  <entry out="125" producer="45" in="97"/>
  <entry out="117" producer="46" in="91"/>
  <entry out="93" producer="47" in="67"/>
  <entry out="101" producer="48" in="73"/>
  <entry out="26" producer="49" in="3"/>
  <entry out="110" producer="50" in="0"/>
  <entry out="54" producer="51" in="0"/>
  <entry out="98" producer="52" in="0"/>
  <entry out="60" producer="53" in="0"/>
  <entry out="57" producer="54" in="18"/>
  <entry out="39" producer="55" in="0"/>
  <entry out="47" producer="56" in="8"/>
  <entry out="58" producer="57" in="7"/>
  <entry out="82" producer="58" in="5"/>
  <entry out="92" producer="59" in="0"/>
  <entry out="132" producer="60" in="0"/>
  <entry out="149" producer="61" in="102"/>
  <entry out="139" producer="62" in="92"/>
  <entry out="59" producer="63" in="12"/>
  <entry out="163" producer="64" in="116"/>
  <entry out="229" producer="65" in="83"/>
  <entry out="157" producer="66" in="98"/>
  <entry out="178" producer="67" in="121"/>
  <entry out="271" producer="68" in="0"/>
  <entry out="119" producer="69" in="0"/>
  <entry out="29" producer="70" in="0"/>
  <entry out="29" producer="71" in="0"/>
  <entry out="29" producer="72" in="0"/>
  <entry out="29" producer="73" in="0"/>
  <entry out="43" producer="74" in="0"/>
  <entry out="110" producer="75" in="0"/>
  <entry out="88" producer="76" in="0"/>
  <entry out="399" producer="77" in="0"/>
  <entry out="162" producer="78" in="0"/>
  <entry out="28" producer="79" in="0"/>
  <entry out="244" producer="80" in="0"/>
  <entry out="283" producer="81" in="0"/>
  <entry out="498" producer="82" in="0"/>
  <entry out="149" producer="83" in="0"/>
  <entry out="223" producer="84" in="0"/>
 </playlist>
 <playlist id="playlist4">
  <property name="kdenlive:track_name">Video 2</property>
 </playlist>
 <tractor id="maintractor" title="Anonymous Submission" global_feed="1" out="7817" in="0">
  <track producer="black_track"/>
  <track producer="playlist1" hide="video"/>
  <track producer="playlist2" hide="video"/>
  <track producer="playlist3"/>
  <track producer="playlist4" hide="video"/>
  <transition id="transition0">
   <property name="a_track">0</property>
   <property name="b_track">1</property>
   <property name="mlt_service">mix</property>
   <property name="always_active">1</property>
   <property name="combine">1</property>
   <property name="internal_added">237</property>
  </transition>
  <transition id="transition1">
   <property name="a_track">0</property>
   <property name="b_track">2</property>
   <property name="mlt_service">mix</property>
   <property name="always_active">1</property>
   <property name="combine">1</property>
   <property name="internal_added">237</property>
  </transition>
  <transition id="transition2">
   <property name="a_track">0</property>
   <property name="b_track">3</property>
   <property name="mlt_service">mix</property>
   <property name="always_active">1</property>
   <property name="combine">1</property>
   <property name="internal_added">237</property>
  </transition>
  <transition id="transition4">
   <property name="a_track">0</property>
   <property name="b_track">4</property>
   <property name="mlt_service">mix</property>
   <property name="always_active">1</property>
   <property name="combine">1</property>
   <property name="internal_added">237</property>
  </transition>
  <transition id="transition3">
   <property name="a_track">0</property>
   <property name="b_track">3</property>
   <property name="compositing">0</property>
   <property name="distort">0</property>
   <property name="mlt_service">qtblend</property>
   <property name="internal_added">237</property>
  </transition>
  <transition id="transition5">
   <property name="a_track">0</property>
   <property name="b_track">4</property>
   <property name="compositing">0</property>
   <property name="distort">0</property>
   <property name="mlt_service">qtblend</property>
   <property name="internal_added">237</property>
  </transition>
 </tractor>
</mlt>
