<?xml version='1.0' encoding='utf-8'?>
<mlt title="Anonymous Submission" version="6.5.0" root="/home/martin/Documents/ods stuff/ods/courseware/av" producer="main bin" LC_NUMERIC="en_CA.UTF-8">
 <profile width="1920" frame_rate_den="1" height="1080" display_aspect_num="16" display_aspect_den="9" frame_rate_num="30" colorspace="709" sample_aspect_den="1" description="HD 1080p 30 fps" progressive="1" sample_aspect_num="1"/>
 <producer id="1" title="Anonymous Submission" out="10580" in="0">
  <property name="length">00:05:52:21</property>
  <property name="eof">pause</property>
  <property name="resource">audio/dllist.flac</property>
  <property name="audio_index">0</property>
  <property name="video_index">-1</property>
  <property name="mute_on_pause">1</property>
  <property name="mlt_service">avformat-novalidate</property>
  <property name="meta.media.nb_streams">1</property>
  <property name="meta.media.0.stream.type">audio</property>
  <property name="meta.media.0.codec.sample_fmt">s16</property>
  <property name="meta.media.0.codec.sample_rate">44100</property>
  <property name="meta.media.0.codec.channels">1</property>
  <property name="meta.media.0.codec.name">flac</property>
  <property name="meta.media.0.codec.long_name">FLAC (Free Lossless Audio Codec)</property>
  <property name="meta.media.0.codec.bit_rate">0</property>
  <property name="seekable">1</property>
  <property name="kdenlive:folderid">-1</property>
  <property name="kdenlive:file_size">10485169</property>
  <property name="kdenlive:file_hash">304cf84e8799b705616b259eb730fc5f</property>
  <property name="global_feed">1</property>
 </producer>
 <producer id="2" title="Anonymous Submission" out="291" in="0">
  <property name="length">292</property>
  <property name="eof">pause</property>
  <property name="resource">dllist-images/dllist-01.png</property>
  <property name="ttl">25</property>
  <property name="aspect_ratio">1</property>
  <property name="progressive">1</property>
  <property name="seekable">1</property>
  <property name="loop">1</property>
  <property name="meta.media.width">1921</property>
  <property name="meta.media.height">1080</property>
  <property name="mlt_service">pixbuf</property>
  <property name="kdenlive:folderid">-1</property>
  <property name="kdenlive:duration">150</property>
  <property name="kdenlive:file_size">43650</property>
  <property name="kdenlive:file_hash">201b2eb684d174b5d88f1df6ff10c600</property>
  <property name="global_feed">1</property>
 </producer>
 <producer id="3" title="Anonymous Submission" out="263" in="0">
  <property name="length">264</property>
  <property name="eof">pause</property>
  <property name="resource">dllist-images/dllist-02.png</property>
  <property name="ttl">25</property>
  <property name="aspect_ratio">1</property>
  <property name="progressive">1</property>
  <property name="seekable">1</property>
  <property name="loop">1</property>
  <property name="meta.media.width">1921</property>
  <property name="meta.media.height">1080</property>
  <property name="mlt_service">pixbuf</property>
  <property name="kdenlive:folderid">-1</property>
  <property name="kdenlive:duration">150</property>
  <property name="kdenlive:file_size">31904</property>
  <property name="kdenlive:file_hash">3db30b42dc867a47637cc533c14719e9</property>
  <property name="global_feed">1</property>
 </producer>
 <producer id="4" title="Anonymous Submission" out="467" in="0">
  <property name="length">468</property>
  <property name="eof">pause</property>
  <property name="resource">dllist-images/dllist-03.png</property>
  <property name="ttl">25</property>
  <property name="aspect_ratio">1</property>
  <property name="progressive">1</property>
  <property name="seekable">1</property>
  <property name="loop">1</property>
  <property name="meta.media.width">1921</property>
  <property name="meta.media.height">1080</property>
  <property name="mlt_service">pixbuf</property>
  <property name="kdenlive:folderid">-1</property>
  <property name="kdenlive:duration">150</property>
  <property name="kdenlive:file_size">37532</property>
  <property name="kdenlive:file_hash">b7be9eaa1c008a4fd29db2aed52a2449</property>
  <property name="global_feed">1</property>
 </producer>
 <producer id="10" title="Anonymous Submission" out="405" in="0">
  <property name="length">406</property>
  <property name="eof">pause</property>
  <property name="resource">dllist-images/dllist-09.png</property>
  <property name="ttl">25</property>
  <property name="aspect_ratio">1</property>
  <property name="progressive">1</property>
  <property name="seekable">1</property>
  <property name="loop">1</property>
  <property name="meta.media.width">1921</property>
  <property name="meta.media.height">1080</property>
  <property name="mlt_service">pixbuf</property>
  <property name="kdenlive:folderid">-1</property>
  <property name="kdenlive:duration">150</property>
  <property name="kdenlive:file_size">80978</property>
  <property name="kdenlive:file_hash">eabda2f3e071041699741b6e42a5ec51</property>
  <property name="global_feed">1</property>
 </producer>
 <producer id="11" title="Anonymous Submission" out="308" in="0">
  <property name="length">309</property>
  <property name="eof">pause</property>
  <property name="resource">dllist-images/dllist-10.png</property>
  <property name="ttl">25</property>
  <property name="aspect_ratio">1</property>
  <property name="progressive">1</property>
  <property name="seekable">1</property>
  <property name="loop">1</property>
  <property name="meta.media.width">1921</property>
  <property name="meta.media.height">1080</property>
  <property name="mlt_service">pixbuf</property>
  <property name="kdenlive:folderid">-1</property>
  <property name="kdenlive:duration">150</property>
  <property name="kdenlive:file_size">83581</property>
  <property name="kdenlive:file_hash">e6aad5b96a1566460c2d79551cee35b5</property>
  <property name="global_feed">1</property>
 </producer>
 <producer id="12" title="Anonymous Submission" out="339" in="0">
  <property name="length">340</property>
  <property name="eof">pause</property>
  <property name="resource">dllist-images/dllist-11.png</property>
  <property name="ttl">25</property>
  <property name="aspect_ratio">1</property>
  <property name="progressive">1</property>
  <property name="seekable">1</property>
  <property name="loop">1</property>
  <property name="meta.media.width">1921</property>
  <property name="meta.media.height">1080</property>
  <property name="mlt_service">pixbuf</property>
  <property name="kdenlive:folderid">-1</property>
  <property name="kdenlive:duration">150</property>
  <property name="kdenlive:file_size">83782</property>
  <property name="kdenlive:file_hash">6e964a9db53c8a1729c245c33857c5d6</property>
  <property name="global_feed">1</property>
 </producer>
 <producer id="13" title="Anonymous Submission" out="149" in="0">
  <property name="length">150</property>
  <property name="eof">pause</property>
  <property name="resource">dllist-images/dllist-12.png</property>
  <property name="ttl">25</property>
  <property name="aspect_ratio">1</property>
  <property name="progressive">1</property>
  <property name="seekable">1</property>
  <property name="loop">1</property>
  <property name="meta.media.width">1921</property>
  <property name="meta.media.height">1080</property>
  <property name="mlt_service">pixbuf</property>
  <property name="kdenlive:folderid">-1</property>
  <property name="kdenlive:duration">150</property>
  <property name="kdenlive:file_size">85029</property>
  <property name="kdenlive:file_hash">e73be4170e121324cf15c9509903f537</property>
  <property name="global_feed">1</property>
 </producer>
 <producer id="14" title="Anonymous Submission" out="149" in="0">
  <property name="length">150</property>
  <property name="eof">pause</property>
  <property name="resource">dllist-images/dllist-13.png</property>
  <property name="ttl">25</property>
  <property name="aspect_ratio">1</property>
  <property name="progressive">1</property>
  <property name="seekable">1</property>
  <property name="loop">1</property>
  <property name="meta.media.width">1921</property>
  <property name="meta.media.height">1080</property>
  <property name="mlt_service">pixbuf</property>
  <property name="kdenlive:folderid">-1</property>
  <property name="kdenlive:duration">150</property>
  <property name="kdenlive:file_size">83818</property>
  <property name="kdenlive:file_hash">04d0cac371dc5bef92220bc06708d892</property>
  <property name="global_feed">1</property>
 </producer>
 <producer id="15" title="Anonymous Submission" out="149" in="0">
  <property name="length">150</property>
  <property name="eof">pause</property>
  <property name="resource">dllist-images/dllist-14.png</property>
  <property name="ttl">25</property>
  <property name="aspect_ratio">1</property>
  <property name="progressive">1</property>
  <property name="seekable">1</property>
  <property name="loop">1</property>
  <property name="meta.media.width">1921</property>
  <property name="meta.media.height">1080</property>
  <property name="mlt_service">pixbuf</property>
  <property name="kdenlive:folderid">-1</property>
  <property name="kdenlive:duration">150</property>
  <property name="kdenlive:file_size">84406</property>
  <property name="kdenlive:file_hash">0658626ea6e3eb0dc5dc9555b042a669</property>
  <property name="global_feed">1</property>
 </producer>
 <producer id="16" title="Anonymous Submission" out="149" in="0">
  <property name="length">150</property>
  <property name="eof">pause</property>
  <property name="resource">dllist-images/dllist-15.png</property>
  <property name="ttl">25</property>
  <property name="aspect_ratio">1</property>
  <property name="progressive">1</property>
  <property name="seekable">1</property>
  <property name="loop">1</property>
  <property name="meta.media.width">1921</property>
  <property name="meta.media.height">1080</property>
  <property name="mlt_service">pixbuf</property>
  <property name="kdenlive:folderid">-1</property>
  <property name="kdenlive:duration">150</property>
  <property name="kdenlive:file_size">83998</property>
  <property name="kdenlive:file_hash">ccfdae5a32a9c510cf3e569d2faaa306</property>
  <property name="global_feed">1</property>
 </producer>
 <producer id="17" title="Anonymous Submission" out="149" in="0">
  <property name="length">150</property>
  <property name="eof">pause</property>
  <property name="resource">dllist-images/dllist-16.png</property>
  <property name="ttl">25</property>
  <property name="aspect_ratio">1</property>
  <property name="progressive">1</property>
  <property name="seekable">1</property>
  <property name="loop">1</property>
  <property name="meta.media.width">1921</property>
  <property name="meta.media.height">1080</property>
  <property name="mlt_service">pixbuf</property>
  <property name="kdenlive:folderid">-1</property>
  <property name="kdenlive:duration">150</property>
  <property name="kdenlive:file_size">84498</property>
  <property name="kdenlive:file_hash">33d8f6b8b38de0d973c77b960d09bfd7</property>
  <property name="global_feed">1</property>
 </producer>
 <producer id="18" title="Anonymous Submission" out="149" in="0">
  <property name="length">150</property>
  <property name="eof">pause</property>
  <property name="resource">dllist-images/dllist-17.png</property>
  <property name="ttl">25</property>
  <property name="aspect_ratio">1</property>
  <property name="progressive">1</property>
  <property name="seekable">1</property>
  <property name="loop">1</property>
  <property name="meta.media.width">1921</property>
  <property name="meta.media.height">1080</property>
  <property name="mlt_service">pixbuf</property>
  <property name="kdenlive:folderid">-1</property>
  <property name="kdenlive:duration">150</property>
  <property name="kdenlive:file_size">84023</property>
  <property name="kdenlive:file_hash">05836668d90c89bba1faf8d6dcd34823</property>
  <property name="global_feed">1</property>
 </producer>
 <producer id="19" title="Anonymous Submission" out="149" in="0">
  <property name="length">150</property>
  <property name="eof">pause</property>
  <property name="resource">dllist-images/dllist-18.png</property>
  <property name="ttl">25</property>
  <property name="aspect_ratio">1</property>
  <property name="progressive">1</property>
  <property name="seekable">1</property>
  <property name="loop">1</property>
  <property name="meta.media.width">1921</property>
  <property name="meta.media.height">1080</property>
  <property name="mlt_service">pixbuf</property>
  <property name="kdenlive:folderid">-1</property>
  <property name="kdenlive:duration">150</property>
  <property name="kdenlive:file_size">83984</property>
  <property name="kdenlive:file_hash">6cc12537a1c4724e699a9e37aa8f472f</property>
  <property name="global_feed">1</property>
 </producer>
 <producer id="20" title="Anonymous Submission" out="149" in="0">
  <property name="length">150</property>
  <property name="eof">pause</property>
  <property name="resource">dllist-images/dllist-19.png</property>
  <property name="ttl">25</property>
  <property name="aspect_ratio">1</property>
  <property name="progressive">1</property>
  <property name="seekable">1</property>
  <property name="loop">1</property>
  <property name="meta.media.width">1921</property>
  <property name="meta.media.height">1080</property>
  <property name="mlt_service">pixbuf</property>
  <property name="kdenlive:folderid">-1</property>
  <property name="kdenlive:duration">150</property>
  <property name="kdenlive:file_size">74649</property>
  <property name="kdenlive:file_hash">d560a52d471df07ff788435a858b1884</property>
  <property name="global_feed">1</property>
 </producer>
 <producer id="21" title="Anonymous Submission" out="149" in="0">
  <property name="length">150</property>
  <property name="eof">pause</property>
  <property name="resource">dllist-images/dllist-20.png</property>
  <property name="ttl">25</property>
  <property name="aspect_ratio">1</property>
  <property name="progressive">1</property>
  <property name="seekable">1</property>
  <property name="loop">1</property>
  <property name="meta.media.width">1921</property>
  <property name="meta.media.height">1080</property>
  <property name="mlt_service">pixbuf</property>
  <property name="kdenlive:folderid">-1</property>
  <property name="kdenlive:duration">150</property>
  <property name="kdenlive:file_size">80746</property>
  <property name="kdenlive:file_hash">b37686e28b8ba54dedc4456ba3138a39</property>
  <property name="global_feed">1</property>
 </producer>
 <producer id="22" title="Anonymous Submission" out="149" in="0">
  <property name="length">150</property>
  <property name="eof">pause</property>
  <property name="resource">dllist-images/dllist-21.png</property>
  <property name="ttl">25</property>
  <property name="aspect_ratio">1</property>
  <property name="progressive">1</property>
  <property name="seekable">1</property>
  <property name="loop">1</property>
  <property name="meta.media.width">1921</property>
  <property name="meta.media.height">1080</property>
  <property name="mlt_service">pixbuf</property>
  <property name="kdenlive:folderid">-1</property>
  <property name="kdenlive:duration">150</property>
  <property name="kdenlive:file_size">83288</property>
  <property name="kdenlive:file_hash">65565c2f4dee1f381ffb62092b6c9e0b</property>
  <property name="global_feed">1</property>
 </producer>
 <producer id="23" title="Anonymous Submission" out="152" in="0">
  <property name="length">153</property>
  <property name="eof">pause</property>
  <property name="resource">dllist-images/dllist-22.png</property>
  <property name="ttl">25</property>
  <property name="aspect_ratio">1</property>
  <property name="progressive">1</property>
  <property name="seekable">1</property>
  <property name="loop">1</property>
  <property name="meta.media.width">1921</property>
  <property name="meta.media.height">1080</property>
  <property name="mlt_service">pixbuf</property>
  <property name="kdenlive:folderid">-1</property>
  <property name="kdenlive:duration">150</property>
  <property name="kdenlive:file_size">82292</property>
  <property name="kdenlive:file_hash">17c7bcedccf47168807d8b5dff9031e7</property>
  <property name="global_feed">1</property>
 </producer>
 <producer id="24" title="Anonymous Submission" out="149" in="0">
  <property name="length">150</property>
  <property name="eof">pause</property>
  <property name="resource">dllist-images/dllist-23.png</property>
  <property name="ttl">25</property>
  <property name="aspect_ratio">1</property>
  <property name="progressive">1</property>
  <property name="seekable">1</property>
  <property name="loop">1</property>
  <property name="meta.media.width">1921</property>
  <property name="meta.media.height">1080</property>
  <property name="mlt_service">pixbuf</property>
  <property name="kdenlive:folderid">-1</property>
  <property name="kdenlive:duration">150</property>
  <property name="kdenlive:file_size">84362</property>
  <property name="kdenlive:file_hash">48b509ae992a2bdd474ed144f889236a</property>
  <property name="global_feed">1</property>
 </producer>
 <producer id="25" title="Anonymous Submission" out="477" in="0">
  <property name="length">478</property>
  <property name="eof">pause</property>
  <property name="resource">dllist-images/dllist-31.png</property>
  <property name="ttl">25</property>
  <property name="aspect_ratio">1</property>
  <property name="progressive">1</property>
  <property name="seekable">1</property>
  <property name="loop">1</property>
  <property name="meta.media.width">1921</property>
  <property name="meta.media.height">1080</property>
  <property name="mlt_service">pixbuf</property>
  <property name="kdenlive:folderid">-1</property>
  <property name="kdenlive:duration">150</property>
  <property name="kdenlive:file_size">85736</property>
  <property name="kdenlive:file_hash">ac6037c479edb0dff28ebb54d93c8281</property>
  <property name="global_feed">1</property>
 </producer>
 <producer id="26" title="Anonymous Submission" out="171" in="0">
  <property name="length">172</property>
  <property name="eof">pause</property>
  <property name="resource">dllist-images/dllist-32.png</property>
  <property name="ttl">25</property>
  <property name="aspect_ratio">1</property>
  <property name="progressive">1</property>
  <property name="seekable">1</property>
  <property name="loop">1</property>
  <property name="meta.media.width">1921</property>
  <property name="meta.media.height">1080</property>
  <property name="mlt_service">pixbuf</property>
  <property name="kdenlive:folderid">-1</property>
  <property name="kdenlive:duration">150</property>
  <property name="kdenlive:file_size">85711</property>
  <property name="kdenlive:file_hash">5f3ababcb0cf322f51fff680fee177dd</property>
  <property name="global_feed">1</property>
 </producer>
 <producer id="27" title="Anonymous Submission" out="362" in="0">
  <property name="length">363</property>
  <property name="eof">pause</property>
  <property name="resource">dllist-images/dllist-33.png</property>
  <property name="ttl">25</property>
  <property name="aspect_ratio">1</property>
  <property name="progressive">1</property>
  <property name="seekable">1</property>
  <property name="loop">1</property>
  <property name="meta.media.width">1921</property>
  <property name="meta.media.height">1080</property>
  <property name="mlt_service">pixbuf</property>
  <property name="kdenlive:folderid">-1</property>
  <property name="kdenlive:duration">150</property>
  <property name="kdenlive:file_size">85736</property>
  <property name="kdenlive:file_hash">ac6037c479edb0dff28ebb54d93c8281</property>
  <property name="global_feed">1</property>
 </producer>
 <producer id="28" title="Anonymous Submission" out="285" in="0">
  <property name="length">286</property>
  <property name="eof">pause</property>
  <property name="resource">dllist-images/dllist-34.png</property>
  <property name="ttl">25</property>
  <property name="aspect_ratio">1</property>
  <property name="progressive">1</property>
  <property name="seekable">1</property>
  <property name="loop">1</property>
  <property name="meta.media.width">1921</property>
  <property name="meta.media.height">1080</property>
  <property name="mlt_service">pixbuf</property>
  <property name="kdenlive:folderid">-1</property>
  <property name="kdenlive:duration">150</property>
  <property name="kdenlive:file_size">74649</property>
  <property name="kdenlive:file_hash">d560a52d471df07ff788435a858b1884</property>
  <property name="global_feed">1</property>
 </producer>
 <producer id="29" title="Anonymous Submission" out="343" in="0">
  <property name="length">344</property>
  <property name="eof">pause</property>
  <property name="resource">dllist-images/dllist-35.png</property>
  <property name="ttl">25</property>
  <property name="aspect_ratio">1</property>
  <property name="progressive">1</property>
  <property name="seekable">1</property>
  <property name="loop">1</property>
  <property name="meta.media.width">1921</property>
  <property name="meta.media.height">1080</property>
  <property name="mlt_service">pixbuf</property>
  <property name="kdenlive:folderid">-1</property>
  <property name="kdenlive:duration">150</property>
  <property name="kdenlive:file_size">89810</property>
  <property name="kdenlive:file_hash">8629e186d0019367fa901e6a4d1775ac</property>
  <property name="global_feed">1</property>
 </producer>
 <producer id="30" title="Anonymous Submission" out="187" in="0">
  <property name="length">188</property>
  <property name="eof">pause</property>
  <property name="resource">dllist-images/dllist-36.png</property>
  <property name="ttl">25</property>
  <property name="aspect_ratio">1</property>
  <property name="progressive">1</property>
  <property name="seekable">1</property>
  <property name="loop">1</property>
  <property name="meta.media.width">1921</property>
  <property name="meta.media.height">1080</property>
  <property name="mlt_service">pixbuf</property>
  <property name="kdenlive:folderid">-1</property>
  <property name="kdenlive:duration">150</property>
  <property name="kdenlive:file_size">94754</property>
  <property name="kdenlive:file_hash">111c975dedc38a9608074b7dede2c3f7</property>
  <property name="global_feed">1</property>
 </producer>
 <producer id="31" title="Anonymous Submission" out="156" in="0">
  <property name="length">157</property>
  <property name="eof">pause</property>
  <property name="resource">dllist-images/dllist-37.png</property>
  <property name="ttl">25</property>
  <property name="aspect_ratio">1</property>
  <property name="progressive">1</property>
  <property name="seekable">1</property>
  <property name="loop">1</property>
  <property name="meta.media.width">1921</property>
  <property name="meta.media.height">1080</property>
  <property name="mlt_service">pixbuf</property>
  <property name="kdenlive:folderid">-1</property>
  <property name="kdenlive:duration">150</property>
  <property name="kdenlive:file_size">74649</property>
  <property name="kdenlive:file_hash">d560a52d471df07ff788435a858b1884</property>
  <property name="global_feed">1</property>
 </producer>
 <producer id="32" title="Anonymous Submission" out="339" in="0">
  <property name="length">340</property>
  <property name="eof">pause</property>
  <property name="resource">dllist-images/dllist-38.png</property>
  <property name="ttl">25</property>
  <property name="aspect_ratio">1</property>
  <property name="progressive">1</property>
  <property name="seekable">1</property>
  <property name="loop">1</property>
  <property name="meta.media.width">1921</property>
  <property name="meta.media.height">1080</property>
  <property name="mlt_service">pixbuf</property>
  <property name="kdenlive:folderid">-1</property>
  <property name="kdenlive:duration">150</property>
  <property name="kdenlive:file_size">91023</property>
  <property name="kdenlive:file_hash">cc8df8622a227654168b1b1f37409afd</property>
  <property name="global_feed">1</property>
 </producer>
 <producer id="33" title="Anonymous Submission" out="149" in="0">
  <property name="length">150</property>
  <property name="eof">pause</property>
  <property name="resource">dllist-images/dllist-24.png</property>
  <property name="ttl">25</property>
  <property name="aspect_ratio">1</property>
  <property name="progressive">1</property>
  <property name="seekable">1</property>
  <property name="loop">1</property>
  <property name="meta.media.width">1921</property>
  <property name="meta.media.height">1080</property>
  <property name="mlt_service">pixbuf</property>
  <property name="kdenlive:folderid">-1</property>
  <property name="kdenlive:duration">150</property>
  <property name="kdenlive:file_size">83599</property>
  <property name="kdenlive:file_hash">c533051cda69c94791bd0800ff3834e9</property>
  <property name="global_feed">1</property>
 </producer>
 <producer id="34" title="Anonymous Submission" out="149" in="0">
  <property name="length">150</property>
  <property name="eof">pause</property>
  <property name="resource">dllist-images/dllist-25.png</property>
  <property name="ttl">25</property>
  <property name="aspect_ratio">1</property>
  <property name="progressive">1</property>
  <property name="seekable">1</property>
  <property name="loop">1</property>
  <property name="meta.media.width">1921</property>
  <property name="meta.media.height">1080</property>
  <property name="mlt_service">pixbuf</property>
  <property name="kdenlive:folderid">-1</property>
  <property name="kdenlive:duration">150</property>
  <property name="kdenlive:file_size">83956</property>
  <property name="kdenlive:file_hash">55f41cb0e4db48198f6c324d2f003214</property>
  <property name="global_feed">1</property>
 </producer>
 <producer id="35" title="Anonymous Submission" out="149" in="0">
  <property name="length">150</property>
  <property name="eof">pause</property>
  <property name="resource">dllist-images/dllist-26.png</property>
  <property name="ttl">25</property>
  <property name="aspect_ratio">1</property>
  <property name="progressive">1</property>
  <property name="seekable">1</property>
  <property name="loop">1</property>
  <property name="meta.media.width">1921</property>
  <property name="meta.media.height">1080</property>
  <property name="mlt_service">pixbuf</property>
  <property name="kdenlive:folderid">-1</property>
  <property name="kdenlive:duration">150</property>
  <property name="kdenlive:file_size">83731</property>
  <property name="kdenlive:file_hash">338edc525e53b78d47d16cfd34c8623f</property>
  <property name="global_feed">1</property>
 </producer>
 <producer id="36" title="Anonymous Submission" out="149" in="0">
  <property name="length">150</property>
  <property name="eof">pause</property>
  <property name="resource">dllist-images/dllist-27.png</property>
  <property name="ttl">25</property>
  <property name="aspect_ratio">1</property>
  <property name="progressive">1</property>
  <property name="seekable">1</property>
  <property name="loop">1</property>
  <property name="meta.media.width">1921</property>
  <property name="meta.media.height">1080</property>
  <property name="mlt_service">pixbuf</property>
  <property name="kdenlive:folderid">-1</property>
  <property name="kdenlive:duration">150</property>
  <property name="kdenlive:file_size">83691</property>
  <property name="kdenlive:file_hash">750a47ea3c11b16efab5295192433132</property>
  <property name="global_feed">1</property>
 </producer>
 <producer id="37" title="Anonymous Submission" out="149" in="0">
  <property name="length">150</property>
  <property name="eof">pause</property>
  <property name="resource">dllist-images/dllist-28.png</property>
  <property name="ttl">25</property>
  <property name="aspect_ratio">1</property>
  <property name="progressive">1</property>
  <property name="seekable">1</property>
  <property name="loop">1</property>
  <property name="meta.media.width">1921</property>
  <property name="meta.media.height">1080</property>
  <property name="mlt_service">pixbuf</property>
  <property name="kdenlive:folderid">-1</property>
  <property name="kdenlive:duration">150</property>
  <property name="kdenlive:file_size">74649</property>
  <property name="kdenlive:file_hash">d560a52d471df07ff788435a858b1884</property>
  <property name="global_feed">1</property>
 </producer>
 <producer id="38" title="Anonymous Submission" out="149" in="0">
  <property name="length">150</property>
  <property name="eof">pause</property>
  <property name="resource">dllist-images/dllist-29.png</property>
  <property name="ttl">25</property>
  <property name="aspect_ratio">1</property>
  <property name="progressive">1</property>
  <property name="seekable">1</property>
  <property name="loop">1</property>
  <property name="meta.media.width">1921</property>
  <property name="meta.media.height">1080</property>
  <property name="mlt_service">pixbuf</property>
  <property name="kdenlive:folderid">-1</property>
  <property name="kdenlive:duration">150</property>
  <property name="kdenlive:file_size">80590</property>
  <property name="kdenlive:file_hash">45a8a8143b616aeb0db37aa4c469203d</property>
  <property name="global_feed">1</property>
 </producer>
 <producer id="39" title="Anonymous Submission" out="158" in="0">
  <property name="length">159</property>
  <property name="eof">pause</property>
  <property name="resource">dllist-images/dllist-30.png</property>
  <property name="ttl">25</property>
  <property name="aspect_ratio">1</property>
  <property name="progressive">1</property>
  <property name="seekable">1</property>
  <property name="loop">1</property>
  <property name="meta.media.width">1921</property>
  <property name="meta.media.height">1080</property>
  <property name="mlt_service">pixbuf</property>
  <property name="kdenlive:folderid">-1</property>
  <property name="kdenlive:duration">150</property>
  <property name="kdenlive:file_size">83890</property>
  <property name="kdenlive:file_hash">ebe3c9f8fad1c37e82ccb60876836f43</property>
  <property name="global_feed">1</property>
 </producer>
 <producer id="40" title="Anonymous Submission" out="301" in="0">
  <property name="length">302</property>
  <property name="eof">pause</property>
  <property name="resource">dllist-images/dllist-39.png</property>
  <property name="ttl">25</property>
  <property name="aspect_ratio">1</property>
  <property name="progressive">1</property>
  <property name="seekable">1</property>
  <property name="loop">1</property>
  <property name="meta.media.width">1921</property>
  <property name="meta.media.height">1080</property>
  <property name="mlt_service">pixbuf</property>
  <property name="kdenlive:folderid">-1</property>
  <property name="kdenlive:duration">150</property>
  <property name="kdenlive:file_size">96099</property>
  <property name="kdenlive:file_hash">b29ccd83250d53bdd370e9b8c21b2171</property>
  <property name="global_feed">1</property>
 </producer>
 <producer id="41" title="Anonymous Submission" out="280" in="0">
  <property name="length">281</property>
  <property name="eof">pause</property>
  <property name="resource">dllist-images/dllist-40.png</property>
  <property name="ttl">25</property>
  <property name="aspect_ratio">1</property>
  <property name="progressive">1</property>
  <property name="seekable">1</property>
  <property name="loop">1</property>
  <property name="meta.media.width">1921</property>
  <property name="meta.media.height">1080</property>
  <property name="mlt_service">pixbuf</property>
  <property name="kdenlive:folderid">-1</property>
  <property name="kdenlive:duration">150</property>
  <property name="kdenlive:file_size">74649</property>
  <property name="kdenlive:file_hash">d560a52d471df07ff788435a858b1884</property>
  <property name="global_feed">1</property>
 </producer>
 <producer id="42" title="Anonymous Submission" out="886" in="0">
  <property name="length">887</property>
  <property name="eof">pause</property>
  <property name="resource">dllist-images/dllist-41.png</property>
  <property name="ttl">25</property>
  <property name="aspect_ratio">1</property>
  <property name="progressive">1</property>
  <property name="seekable">1</property>
  <property name="loop">1</property>
  <property name="meta.media.width">1921</property>
  <property name="meta.media.height">1080</property>
  <property name="mlt_service">pixbuf</property>
  <property name="kdenlive:folderid">-1</property>
  <property name="kdenlive:duration">150</property>
  <property name="kdenlive:file_size">81574</property>
  <property name="kdenlive:file_hash">3ac0e0b19c628c2e9f5b5f76b33c981b</property>
  <property name="global_feed">1</property>
 </producer>
 <producer id="43" title="Anonymous Submission" out="273" in="0">
  <property name="length">274</property>
  <property name="eof">pause</property>
  <property name="resource">dllist-images/dllist-42.png</property>
  <property name="ttl">25</property>
  <property name="aspect_ratio">1</property>
  <property name="progressive">1</property>
  <property name="seekable">1</property>
  <property name="loop">1</property>
  <property name="meta.media.width">1921</property>
  <property name="meta.media.height">1080</property>
  <property name="mlt_service">pixbuf</property>
  <property name="kdenlive:folderid">-1</property>
  <property name="kdenlive:duration">150</property>
  <property name="kdenlive:file_size">86115</property>
  <property name="kdenlive:file_hash">5a4ba8a2891c2f762393fefa6302ea55</property>
  <property name="global_feed">1</property>
 </producer>
 <producer id="44" title="Anonymous Submission" out="737" in="0">
  <property name="length">738</property>
  <property name="eof">pause</property>
  <property name="resource">dllist-images/dllist-43.png</property>
  <property name="ttl">25</property>
  <property name="aspect_ratio">1</property>
  <property name="progressive">1</property>
  <property name="seekable">1</property>
  <property name="loop">1</property>
  <property name="meta.media.width">1921</property>
  <property name="meta.media.height">1080</property>
  <property name="mlt_service">pixbuf</property>
  <property name="kdenlive:folderid">-1</property>
  <property name="kdenlive:duration">150</property>
  <property name="kdenlive:file_size">87247</property>
  <property name="kdenlive:file_hash">e39b1d7cc8eac3d284107e577060dc70</property>
  <property name="global_feed">1</property>
 </producer>
 <producer id="45" title="Anonymous Submission" out="149" in="0">
  <property name="length">150</property>
  <property name="eof">pause</property>
  <property name="resource">dllist-images/dllist-44.png</property>
  <property name="ttl">25</property>
  <property name="aspect_ratio">1</property>
  <property name="progressive">1</property>
  <property name="seekable">1</property>
  <property name="loop">1</property>
  <property name="meta.media.width">1921</property>
  <property name="meta.media.height">1080</property>
  <property name="mlt_service">pixbuf</property>
  <property name="kdenlive:folderid">-1</property>
  <property name="kdenlive:duration">150</property>
  <property name="kdenlive:file_size">89284</property>
  <property name="kdenlive:file_hash">a50f31fe04613f5a2e802293ec7b65c3</property>
  <property name="global_feed">1</property>
 </producer>
 <producer id="46" title="Anonymous Submission" out="149" in="0">
  <property name="length">150</property>
  <property name="eof">pause</property>
  <property name="resource">dllist-images/dllist-45.png</property>
  <property name="ttl">25</property>
  <property name="aspect_ratio">1</property>
  <property name="progressive">1</property>
  <property name="seekable">1</property>
  <property name="loop">1</property>
  <property name="meta.media.width">1921</property>
  <property name="meta.media.height">1080</property>
  <property name="mlt_service">pixbuf</property>
  <property name="kdenlive:folderid">-1</property>
  <property name="kdenlive:duration">150</property>
  <property name="kdenlive:file_size">91736</property>
  <property name="kdenlive:file_hash">945c6146c5efcd81dd5a8b9f58cbe99d</property>
  <property name="global_feed">1</property>
 </producer>
 <producer id="47" title="Anonymous Submission" out="149" in="0">
  <property name="length">150</property>
  <property name="eof">pause</property>
  <property name="resource">dllist-images/dllist-46.png</property>
  <property name="ttl">25</property>
  <property name="aspect_ratio">1</property>
  <property name="progressive">1</property>
  <property name="seekable">1</property>
  <property name="loop">1</property>
  <property name="meta.media.width">1921</property>
  <property name="meta.media.height">1080</property>
  <property name="mlt_service">pixbuf</property>
  <property name="kdenlive:folderid">-1</property>
  <property name="kdenlive:duration">150</property>
  <property name="kdenlive:file_size">92157</property>
  <property name="kdenlive:file_hash">17b6b222214347d7aa634d5e62860ccc</property>
  <property name="global_feed">1</property>
 </producer>
 <producer id="48" title="Anonymous Submission" out="422" in="0">
  <property name="length">423</property>
  <property name="eof">pause</property>
  <property name="resource">dllist-images/dllist-47.png</property>
  <property name="ttl">25</property>
  <property name="aspect_ratio">1</property>
  <property name="progressive">1</property>
  <property name="seekable">1</property>
  <property name="loop">1</property>
  <property name="meta.media.width">1921</property>
  <property name="meta.media.height">1080</property>
  <property name="mlt_service">pixbuf</property>
  <property name="kdenlive:folderid">-1</property>
  <property name="kdenlive:duration">150</property>
  <property name="kdenlive:file_size">93444</property>
  <property name="kdenlive:file_hash">ff1a21d954e16439efa0a9a6653875fe</property>
  <property name="global_feed">1</property>
 </producer>
 <producer id="49" title="Anonymous Submission" out="164" in="0">
  <property name="length">165</property>
  <property name="eof">pause</property>
  <property name="resource">dllist-images/dllist-48.png</property>
  <property name="ttl">25</property>
  <property name="aspect_ratio">1</property>
  <property name="progressive">1</property>
  <property name="seekable">1</property>
  <property name="loop">1</property>
  <property name="meta.media.width">1921</property>
  <property name="meta.media.height">1080</property>
  <property name="mlt_service">pixbuf</property>
  <property name="kdenlive:folderid">-1</property>
  <property name="kdenlive:duration">150</property>
  <property name="kdenlive:file_size">93100</property>
  <property name="kdenlive:file_hash">d478a467956673bd1ddc05eadec0b838</property>
  <property name="global_feed">1</property>
 </producer>
 <producer id="5" title="Anonymous Submission" out="192" in="0">
  <property name="length">193</property>
  <property name="eof">pause</property>
  <property name="resource">dllist-images/dllist-04.png</property>
  <property name="ttl">25</property>
  <property name="aspect_ratio">1</property>
  <property name="progressive">1</property>
  <property name="seekable">1</property>
  <property name="loop">1</property>
  <property name="meta.media.width">1921</property>
  <property name="meta.media.height">1080</property>
  <property name="mlt_service">pixbuf</property>
  <property name="kdenlive:folderid">-1</property>
  <property name="kdenlive:duration">150</property>
  <property name="kdenlive:file_size">48814</property>
  <property name="kdenlive:file_hash">aad280bb9a72903af7f2d0ed64797500</property>
  <property name="global_feed">1</property>
 </producer>
 <producer id="50" title="Anonymous Submission" out="431" in="0">
  <property name="length">432</property>
  <property name="eof">pause</property>
  <property name="resource">dllist-images/dllist-49.png</property>
  <property name="ttl">25</property>
  <property name="aspect_ratio">1</property>
  <property name="progressive">1</property>
  <property name="seekable">1</property>
  <property name="loop">1</property>
  <property name="meta.media.width">1921</property>
  <property name="meta.media.height">1080</property>
  <property name="mlt_service">pixbuf</property>
  <property name="kdenlive:folderid">-1</property>
  <property name="kdenlive:duration">150</property>
  <property name="kdenlive:file_size">93619</property>
  <property name="kdenlive:file_hash">827aea1e72d8cc4c2c0bfcedc15313f6</property>
  <property name="global_feed">1</property>
 </producer>
 <producer id="51" title="Anonymous Submission" out="470" in="0">
  <property name="length">471</property>
  <property name="eof">pause</property>
  <property name="resource">dllist-images/dllist-50.png</property>
  <property name="ttl">25</property>
  <property name="aspect_ratio">1</property>
  <property name="progressive">1</property>
  <property name="seekable">1</property>
  <property name="loop">1</property>
  <property name="meta.media.width">1921</property>
  <property name="meta.media.height">1080</property>
  <property name="mlt_service">pixbuf</property>
  <property name="kdenlive:folderid">-1</property>
  <property name="kdenlive:duration">150</property>
  <property name="kdenlive:file_size">93125</property>
  <property name="kdenlive:file_hash">2c7c589e7cdc3972561eb1253c02ecde</property>
  <property name="global_feed">1</property>
 </producer>
 <producer id="52" title="Anonymous Submission" out="246" in="0">
  <property name="length">247</property>
  <property name="eof">pause</property>
  <property name="resource">dllist-images/dllist-51.png</property>
  <property name="ttl">25</property>
  <property name="aspect_ratio">1</property>
  <property name="progressive">1</property>
  <property name="seekable">1</property>
  <property name="loop">1</property>
  <property name="meta.media.width">1921</property>
  <property name="meta.media.height">1080</property>
  <property name="mlt_service">pixbuf</property>
  <property name="kdenlive:folderid">-1</property>
  <property name="kdenlive:duration">150</property>
  <property name="kdenlive:file_size">87447</property>
  <property name="kdenlive:file_hash">1217b950a6859a7dc5f8cb15df9129be</property>
  <property name="global_feed">1</property>
 </producer>
 <producer id="53" title="Anonymous Submission" out="149" in="0">
  <property name="length">150</property>
  <property name="eof">pause</property>
  <property name="resource">dllist-images/dllist-52.png</property>
  <property name="ttl">25</property>
  <property name="aspect_ratio">1</property>
  <property name="progressive">1</property>
  <property name="seekable">1</property>
  <property name="loop">1</property>
  <property name="meta.media.width">1921</property>
  <property name="meta.media.height">1080</property>
  <property name="mlt_service">pixbuf</property>
  <property name="kdenlive:folderid">-1</property>
  <property name="kdenlive:duration">150</property>
  <property name="kdenlive:file_size">91161</property>
  <property name="kdenlive:file_hash">aae5f4f9a5db0b55ed9ecb6a823f3936</property>
  <property name="global_feed">1</property>
 </producer>
 <producer id="54" title="Anonymous Submission" out="241" in="0">
  <property name="length">242</property>
  <property name="eof">pause</property>
  <property name="resource">dllist-images/dllist-53.png</property>
  <property name="ttl">25</property>
  <property name="aspect_ratio">1</property>
  <property name="progressive">1</property>
  <property name="seekable">1</property>
  <property name="loop">1</property>
  <property name="meta.media.width">1921</property>
  <property name="meta.media.height">1080</property>
  <property name="mlt_service">pixbuf</property>
  <property name="kdenlive:folderid">-1</property>
  <property name="kdenlive:duration">150</property>
  <property name="kdenlive:file_size">96102</property>
  <property name="kdenlive:file_hash">cdd74e0a5ddc84ef72219f6a741b1675</property>
  <property name="global_feed">1</property>
 </producer>
 <producer id="55" title="Anonymous Submission" out="275" in="0">
  <property name="length">276</property>
  <property name="eof">pause</property>
  <property name="resource">dllist-images/dllist-54.png</property>
  <property name="ttl">25</property>
  <property name="aspect_ratio">1</property>
  <property name="progressive">1</property>
  <property name="seekable">1</property>
  <property name="loop">1</property>
  <property name="meta.media.width">1921</property>
  <property name="meta.media.height">1080</property>
  <property name="mlt_service">pixbuf</property>
  <property name="kdenlive:folderid">-1</property>
  <property name="kdenlive:duration">150</property>
  <property name="kdenlive:file_size">87447</property>
  <property name="kdenlive:file_hash">1217b950a6859a7dc5f8cb15df9129be</property>
  <property name="global_feed">1</property>
 </producer>
 <producer id="56" title="Anonymous Submission" out="325" in="0">
  <property name="length">326</property>
  <property name="eof">pause</property>
  <property name="resource">dllist-images/dllist-55.png</property>
  <property name="ttl">25</property>
  <property name="aspect_ratio">1</property>
  <property name="progressive">1</property>
  <property name="seekable">1</property>
  <property name="loop">1</property>
  <property name="meta.media.width">1921</property>
  <property name="meta.media.height">1080</property>
  <property name="mlt_service">pixbuf</property>
  <property name="kdenlive:folderid">-1</property>
  <property name="kdenlive:duration">150</property>
  <property name="kdenlive:file_size">91976</property>
  <property name="kdenlive:file_hash">bb97d24457c669ab3d4b2a75795a0794</property>
  <property name="global_feed">1</property>
 </producer>
 <producer id="57" title="Anonymous Submission" out="298" in="0">
  <property name="length">299</property>
  <property name="eof">pause</property>
  <property name="resource">dllist-images/dllist-56.png</property>
  <property name="ttl">25</property>
  <property name="aspect_ratio">1</property>
  <property name="progressive">1</property>
  <property name="seekable">1</property>
  <property name="loop">1</property>
  <property name="meta.media.width">1921</property>
  <property name="meta.media.height">1080</property>
  <property name="mlt_service">pixbuf</property>
  <property name="kdenlive:folderid">-1</property>
  <property name="kdenlive:duration">150</property>
  <property name="kdenlive:file_size">92805</property>
  <property name="kdenlive:file_hash">8532a387b3857a99d8305b100b20fb2d</property>
  <property name="global_feed">1</property>
 </producer>
 <producer id="58" title="Anonymous Submission" out="587" in="0">
  <property name="length">588</property>
  <property name="eof">pause</property>
  <property name="resource">dllist-images/dllist-57.png</property>
  <property name="ttl">25</property>
  <property name="aspect_ratio">1</property>
  <property name="progressive">1</property>
  <property name="seekable">1</property>
  <property name="loop">1</property>
  <property name="meta.media.width">1921</property>
  <property name="meta.media.height">1080</property>
  <property name="mlt_service">pixbuf</property>
  <property name="kdenlive:folderid">-1</property>
  <property name="kdenlive:duration">150</property>
  <property name="kdenlive:file_size">95228</property>
  <property name="kdenlive:file_hash">a4b2a91562e932f7f9876e09b2786c14</property>
  <property name="global_feed">1</property>
 </producer>
 <producer id="59" title="Anonymous Submission" out="551" in="0">
  <property name="length">552</property>
  <property name="eof">pause</property>
  <property name="resource">dllist-images/dllist-58.png</property>
  <property name="ttl">25</property>
  <property name="aspect_ratio">1</property>
  <property name="progressive">1</property>
  <property name="seekable">1</property>
  <property name="loop">1</property>
  <property name="meta.media.width">1921</property>
  <property name="meta.media.height">1080</property>
  <property name="mlt_service">pixbuf</property>
  <property name="kdenlive:folderid">-1</property>
  <property name="kdenlive:duration">150</property>
  <property name="kdenlive:file_size">97581</property>
  <property name="kdenlive:file_hash">fe7b93c2535e6ac004e3c9d43ee5da1f</property>
  <property name="global_feed">1</property>
 </producer>
 <producer id="6" title="Anonymous Submission" out="270" in="0">
  <property name="length">271</property>
  <property name="eof">pause</property>
  <property name="resource">dllist-images/dllist-05.png</property>
  <property name="ttl">25</property>
  <property name="aspect_ratio">1</property>
  <property name="progressive">1</property>
  <property name="seekable">1</property>
  <property name="loop">1</property>
  <property name="meta.media.width">1921</property>
  <property name="meta.media.height">1080</property>
  <property name="mlt_service">pixbuf</property>
  <property name="kdenlive:folderid">-1</property>
  <property name="kdenlive:duration">150</property>
  <property name="kdenlive:file_size">53018</property>
  <property name="kdenlive:file_hash">868626d3f9218671df60c46a279625ae</property>
  <property name="global_feed">1</property>
 </producer>
 <producer id="60" title="Anonymous Submission" out="500" in="0">
  <property name="length">501</property>
  <property name="eof">pause</property>
  <property name="resource">dllist-images/dllist-59.png</property>
  <property name="ttl">25</property>
  <property name="aspect_ratio">1</property>
  <property name="progressive">1</property>
  <property name="seekable">1</property>
  <property name="loop">1</property>
  <property name="meta.media.width">1921</property>
  <property name="meta.media.height">1080</property>
  <property name="mlt_service">pixbuf</property>
  <property name="kdenlive:folderid">-1</property>
  <property name="kdenlive:duration">150</property>
  <property name="kdenlive:file_size">98468</property>
  <property name="kdenlive:file_hash">6bcdc67c0456e759c1e201335d16e3c7</property>
  <property name="global_feed">1</property>
 </producer>
 <producer id="61" title="Anonymous Submission" out="153" in="0">
  <property name="length">154</property>
  <property name="eof">pause</property>
  <property name="resource">dllist-images/dllist-60.png</property>
  <property name="ttl">25</property>
  <property name="aspect_ratio">1</property>
  <property name="progressive">1</property>
  <property name="seekable">1</property>
  <property name="loop">1</property>
  <property name="meta.media.width">1921</property>
  <property name="meta.media.height">1080</property>
  <property name="mlt_service">pixbuf</property>
  <property name="kdenlive:folderid">-1</property>
  <property name="kdenlive:duration">150</property>
  <property name="kdenlive:file_size">95465</property>
  <property name="kdenlive:file_hash">a42342be9b159c81ced6666262346da1</property>
  <property name="global_feed">1</property>
 </producer>
 <producer id="62" title="Anonymous Submission" out="380" in="0">
  <property name="length">381</property>
  <property name="eof">pause</property>
  <property name="resource">dllist-images/dllist-61.png</property>
  <property name="ttl">25</property>
  <property name="aspect_ratio">1</property>
  <property name="progressive">1</property>
  <property name="seekable">1</property>
  <property name="loop">1</property>
  <property name="meta.media.width">1921</property>
  <property name="meta.media.height">1080</property>
  <property name="mlt_service">pixbuf</property>
  <property name="kdenlive:folderid">-1</property>
  <property name="kdenlive:duration">150</property>
  <property name="kdenlive:file_size">90432</property>
  <property name="kdenlive:file_hash">9982396918b88f0f7f6651833fff78e6</property>
  <property name="global_feed">1</property>
 </producer>
 <producer id="63" title="Anonymous Submission" out="149" in="0">
  <property name="length">150</property>
  <property name="eof">pause</property>
  <property name="resource">dllist-images/dllist-62.png</property>
  <property name="ttl">25</property>
  <property name="aspect_ratio">1</property>
  <property name="progressive">1</property>
  <property name="seekable">1</property>
  <property name="loop">1</property>
  <property name="meta.media.width">1921</property>
  <property name="meta.media.height">1080</property>
  <property name="mlt_service">pixbuf</property>
  <property name="kdenlive:folderid">-1</property>
  <property name="kdenlive:duration">150</property>
  <property name="kdenlive:file_size">94515</property>
  <property name="kdenlive:file_hash">ca2a8e214e120d446ce957ecbfdd21fb</property>
  <property name="global_feed">1</property>
 </producer>
 <producer id="64" title="Anonymous Submission" out="310" in="0">
  <property name="length">311</property>
  <property name="eof">pause</property>
  <property name="resource">dllist-images/dllist-63.png</property>
  <property name="ttl">25</property>
  <property name="aspect_ratio">1</property>
  <property name="progressive">1</property>
  <property name="seekable">1</property>
  <property name="loop">1</property>
  <property name="meta.media.width">1921</property>
  <property name="meta.media.height">1080</property>
  <property name="mlt_service">pixbuf</property>
  <property name="kdenlive:folderid">-1</property>
  <property name="kdenlive:duration">150</property>
  <property name="kdenlive:file_size">99558</property>
  <property name="kdenlive:file_hash">17af03488177b6f76b113a7918137400</property>
  <property name="global_feed">1</property>
 </producer>
 <producer id="65" title="Anonymous Submission" out="364" in="0">
  <property name="length">365</property>
  <property name="eof">pause</property>
  <property name="resource">dllist-images/dllist-64.png</property>
  <property name="ttl">25</property>
  <property name="aspect_ratio">1</property>
  <property name="progressive">1</property>
  <property name="seekable">1</property>
  <property name="loop">1</property>
  <property name="meta.media.width">1921</property>
  <property name="meta.media.height">1080</property>
  <property name="mlt_service">pixbuf</property>
  <property name="kdenlive:folderid">-1</property>
  <property name="kdenlive:duration">150</property>
  <property name="kdenlive:file_size">90432</property>
  <property name="kdenlive:file_hash">9982396918b88f0f7f6651833fff78e6</property>
  <property name="global_feed">1</property>
 </producer>
 <producer id="66" title="Anonymous Submission" out="520" in="0">
  <property name="length">521</property>
  <property name="eof">pause</property>
  <property name="resource">dllist-images/dllist-65.png</property>
  <property name="ttl">25</property>
  <property name="aspect_ratio">1</property>
  <property name="progressive">1</property>
  <property name="seekable">1</property>
  <property name="loop">1</property>
  <property name="meta.media.width">1921</property>
  <property name="meta.media.height">1080</property>
  <property name="mlt_service">pixbuf</property>
  <property name="kdenlive:folderid">-1</property>
  <property name="kdenlive:duration">150</property>
  <property name="kdenlive:file_size">47452</property>
  <property name="kdenlive:file_hash">8d08e4b72f8df5b584f3d360c727caca</property>
  <property name="global_feed">1</property>
 </producer>
 <producer id="67" title="Anonymous Submission" out="598" in="0">
  <property name="length">599</property>
  <property name="eof">pause</property>
  <property name="resource">dllist-images/dllist-66.png</property>
  <property name="ttl">25</property>
  <property name="aspect_ratio">1</property>
  <property name="progressive">1</property>
  <property name="seekable">1</property>
  <property name="loop">1</property>
  <property name="meta.media.width">1921</property>
  <property name="meta.media.height">1080</property>
  <property name="mlt_service">pixbuf</property>
  <property name="kdenlive:folderid">-1</property>
  <property name="kdenlive:duration">150</property>
  <property name="kdenlive:file_size">75499</property>
  <property name="kdenlive:file_hash">a29495d5596d1f22812968da1c731bd6</property>
  <property name="global_feed">1</property>
 </producer>
 <producer id="69" title="Anonymous Submission" out="149" in="0">
  <property name="length">150</property>
  <property name="eof">pause</property>
  <property name="resource">dllist-images/dllist-07.png</property>
  <property name="ttl">25</property>
  <property name="aspect_ratio">1</property>
  <property name="progressive">1</property>
  <property name="seekable">1</property>
  <property name="loop">1</property>
  <property name="meta.media.width">1921</property>
  <property name="meta.media.height">1080</property>
  <property name="mlt_service">pixbuf</property>
  <property name="kdenlive:folderid">-1</property>
  <property name="kdenlive:duration">150</property>
  <property name="kdenlive:file_size">75408</property>
  <property name="kdenlive:file_hash">ac2e1ab16f51b1b269e12497a76addd0</property>
  <property name="global_feed">1</property>
 </producer>
 <producer id="70" title="Anonymous Submission" out="204" in="0">
  <property name="length">205</property>
  <property name="eof">pause</property>
  <property name="resource">dllist-images/dllist-06.png</property>
  <property name="ttl">25</property>
  <property name="aspect_ratio">1</property>
  <property name="progressive">1</property>
  <property name="seekable">1</property>
  <property name="loop">1</property>
  <property name="meta.media.width">1921</property>
  <property name="meta.media.height">1080</property>
  <property name="mlt_service">pixbuf</property>
  <property name="kdenlive:folderid">-1</property>
  <property name="kdenlive:duration">150</property>
  <property name="kdenlive:file_size">66987</property>
  <property name="kdenlive:file_hash">9d76c702fad7d418b4e5cde4c622c69c</property>
  <property name="global_feed">1</property>
 </producer>
 <producer id="8" title="Anonymous Submission" out="281" in="0">
  <property name="length">282</property>
  <property name="eof">pause</property>
  <property name="resource">dllist-images/dllist-07.png</property>
  <property name="ttl">25</property>
  <property name="aspect_ratio">1</property>
  <property name="progressive">1</property>
  <property name="seekable">1</property>
  <property name="loop">1</property>
  <property name="meta.media.width">1921</property>
  <property name="meta.media.height">1080</property>
  <property name="mlt_service">pixbuf</property>
  <property name="kdenlive:folderid">-1</property>
  <property name="kdenlive:duration">150</property>
  <property name="kdenlive:file_size">75408</property>
  <property name="kdenlive:file_hash">ac2e1ab16f51b1b269e12497a76addd0</property>
  <property name="global_feed">1</property>
 </producer>
 <producer id="9" title="Anonymous Submission" out="236" in="0">
  <property name="length">237</property>
  <property name="eof">pause</property>
  <property name="resource">dllist-images/dllist-08.png</property>
  <property name="ttl">25</property>
  <property name="aspect_ratio">1</property>
  <property name="progressive">1</property>
  <property name="seekable">1</property>
  <property name="loop">1</property>
  <property name="meta.media.width">1921</property>
  <property name="meta.media.height">1080</property>
  <property name="mlt_service">pixbuf</property>
  <property name="kdenlive:folderid">-1</property>
  <property name="kdenlive:duration">150</property>
  <property name="kdenlive:file_size">78523</property>
  <property name="kdenlive:file_hash">18ce346cf12974f85685acf376bfcf8a</property>
  <property name="global_feed">1</property>
 </producer>
 <producer id="71" out="379" in="0">
  <property name="length">380</property>
  <property name="eof">pause</property>
  <property name="resource">dllist-images/dllist-67.png</property>
  <property name="ttl">25</property>
  <property name="aspect_ratio">1</property>
  <property name="progressive">1</property>
  <property name="seekable">1</property>
  <property name="loop">1</property>
  <property name="meta.media.width">1921</property>
  <property name="meta.media.height">1080</property>
  <property name="mlt_service">pixbuf</property>
  <property name="kdenlive:folderid">-1</property>
  <property name="kdenlive:duration">150</property>
  <property name="kdenlive:file_size">105815</property>
  <property name="kdenlive:file_hash">3a81ba138c44ee0f2aaec0b50b337cb5</property>
 </producer>
 <producer id="72" out="309" in="0">
  <property name="length">310</property>
  <property name="eof">pause</property>
  <property name="resource">dllist-images/dllist-68.png</property>
  <property name="ttl">25</property>
  <property name="aspect_ratio">1</property>
  <property name="progressive">1</property>
  <property name="seekable">1</property>
  <property name="loop">1</property>
  <property name="meta.media.width">1921</property>
  <property name="meta.media.height">1080</property>
  <property name="mlt_service">pixbuf</property>
  <property name="kdenlive:folderid">-1</property>
  <property name="kdenlive:duration">150</property>
  <property name="kdenlive:file_size">25087</property>
  <property name="kdenlive:file_hash">54ee13c807ee5391d883f6024c09626d</property>
 </producer>
 <playlist id="main bin">
  <property name="kdenlive:docproperties.audiotargettrack">2</property>
  <property name="kdenlive:docproperties.decimalPoint">.</property>
  <property name="kdenlive:docproperties.dirtypreviewchunks"/>
  <property name="kdenlive:docproperties.disablepreview">0</property>
  <property name="kdenlive:docproperties.documentid">1494247719139</property>
  <property name="kdenlive:docproperties.enableproxy">0</property>
  <property name="kdenlive:docproperties.generateimageproxy">0</property>
  <property name="kdenlive:docproperties.generateproxy">0</property>
  <property name="kdenlive:docproperties.kdenliveversion">17.04.0</property>
  <property name="kdenlive:docproperties.position">10457</property>
  <property name="kdenlive:docproperties.previewchunks"/>
  <property name="kdenlive:docproperties.previewextension"/>
  <property name="kdenlive:docproperties.previewparameters"/>
  <property name="kdenlive:docproperties.profile">atsc_1080p_30</property>
  <property name="kdenlive:docproperties.proxyextension">mpg</property>
  <property name="kdenlive:docproperties.proxyimageminsize">2000</property>
  <property name="kdenlive:docproperties.proxyminsize">1000</property>
  <property name="kdenlive:docproperties.proxyparams">-vf scale=640:-1 -g 5 -qscale 6 -ab 128k -vcodec mpeg2video -acodec mp2</property>
  <property name="kdenlive:docproperties.version">0.95</property>
  <property name="kdenlive:docproperties.verticalzoom">1</property>
  <property name="kdenlive:docproperties.videotargettrack">3</property>
  <property name="kdenlive:docproperties.zonein">0</property>
  <property name="kdenlive:docproperties.zoneout">100</property>
  <property name="kdenlive:docproperties.zoom">6</property>
  <property name="kdenlive:documentnotes"/>
  <property name="kdenlive:clipgroups"/>
  <property name="kdenlive:docproperties.renderaudioquality">160</property>
  <property name="kdenlive:docproperties.rendercategory">Generic (HD for web, mobile devices...)</property>
  <property name="kdenlive:docproperties.renderendguide">-1</property>
  <property name="kdenlive:docproperties.renderexportaudio">0</property>
  <property name="kdenlive:docproperties.renderguide">0</property>
  <property name="kdenlive:docproperties.renderplay">0</property>
  <property name="kdenlive:docproperties.renderprofile">MP4 - the dominating format (H264/AAC)</property>
  <property name="kdenlive:docproperties.renderquality">23</property>
  <property name="kdenlive:docproperties.renderratio">1</property>
  <property name="kdenlive:docproperties.renderrescale">0</property>
  <property name="kdenlive:docproperties.renderrescaleheight">180</property>
  <property name="kdenlive:docproperties.renderrescalewidth">320</property>
  <property name="kdenlive:docproperties.renderscanning">0</property>
  <property name="kdenlive:docproperties.renderspeed">2</property>
  <property name="kdenlive:docproperties.renderstartguide">-1</property>
  <property name="kdenlive:docproperties.rendertcoverlay">0</property>
  <property name="kdenlive:docproperties.rendertctype">0</property>
  <property name="kdenlive:docproperties.rendertwopass">0</property>
  <property name="kdenlive:docproperties.renderurl">/home/martin/Documents/untitled.mp4</property>
  <property name="kdenlive:docproperties.renderzone">0</property>
  <property name="xml_retain">1</property>
  <entry out="10580" producer="1" in="0"/>
  <entry out="291" producer="2" in="0"/>
  <entry out="263" producer="3" in="0"/>
  <entry out="467" producer="4" in="0"/>
  <entry out="405" producer="10" in="0"/>
  <entry out="308" producer="11" in="0"/>
  <entry out="339" producer="12" in="0"/>
  <entry out="149" producer="13" in="0"/>
  <entry out="149" producer="14" in="0"/>
  <entry out="149" producer="15" in="0"/>
  <entry out="149" producer="16" in="0"/>
  <entry out="149" producer="17" in="0"/>
  <entry out="149" producer="18" in="0"/>
  <entry out="149" producer="19" in="0"/>
  <entry out="149" producer="20" in="0"/>
  <entry out="149" producer="21" in="0"/>
  <entry out="149" producer="22" in="0"/>
  <entry out="152" producer="23" in="0"/>
  <entry out="149" producer="24" in="0"/>
  <entry out="477" producer="25" in="0"/>
  <entry out="149" producer="26" in="0"/>
  <entry out="362" producer="27" in="0"/>
  <entry out="285" producer="28" in="0"/>
  <entry out="192" producer="29" in="0"/>
  <entry out="187" producer="30" in="0"/>
  <entry out="156" producer="31" in="0"/>
  <entry out="149" producer="32" in="0"/>
  <entry out="149" producer="33" in="0"/>
  <entry out="149" producer="34" in="0"/>
  <entry out="149" producer="35" in="0"/>
  <entry out="149" producer="36" in="0"/>
  <entry out="149" producer="37" in="0"/>
  <entry out="149" producer="38" in="0"/>
  <entry out="158" producer="39" in="0"/>
  <entry out="301" producer="40" in="0"/>
  <entry out="280" producer="41" in="0"/>
  <entry out="886" producer="42" in="0"/>
  <entry out="166" producer="43" in="0"/>
  <entry out="149" producer="44" in="0"/>
  <entry out="149" producer="45" in="0"/>
  <entry out="149" producer="46" in="0"/>
  <entry out="149" producer="47" in="0"/>
  <entry out="422" producer="48" in="0"/>
  <entry out="152" producer="49" in="0"/>
  <entry out="192" producer="5" in="0"/>
  <entry out="208" producer="50" in="0"/>
  <entry out="149" producer="51" in="0"/>
  <entry out="246" producer="52" in="0"/>
  <entry out="149" producer="53" in="0"/>
  <entry out="149" producer="54" in="0"/>
  <entry out="275" producer="55" in="0"/>
  <entry out="149" producer="56" in="0"/>
  <entry out="149" producer="57" in="0"/>
  <entry out="587" producer="58" in="0"/>
  <entry out="551" producer="59" in="0"/>
  <entry out="270" producer="6" in="0"/>
  <entry out="158" producer="60" in="0"/>
  <entry out="153" producer="61" in="0"/>
  <entry out="267" producer="62" in="0"/>
  <entry out="149" producer="63" in="0"/>
  <entry out="221" producer="64" in="0"/>
  <entry out="364" producer="65" in="0"/>
  <entry out="339" producer="66" in="0"/>
  <entry out="149" producer="67" in="0"/>
  <entry out="149" producer="69" in="0"/>
  <entry out="204" producer="70" in="0"/>
  <entry out="281" producer="8" in="0"/>
  <entry out="236" producer="9" in="0"/>
  <entry out="149" producer="71" in="0"/>
  <entry out="149" producer="72" in="0"/>
 </playlist>
 <producer id="black" out="500" in="0">
  <property name="length">15000</property>
  <property name="eof">pause</property>
  <property name="resource">black</property>
  <property name="aspect_ratio">0</property>
  <property name="mlt_service">colour</property>
  <property name="set.test_audio">0</property>
 </producer>
 <playlist id="black_track">
  <entry out="10614" producer="black" in="0"/>
 </playlist>
 <playlist id="playlist0">
  <property name="kdenlive:track_name">Audio 2</property>
  <property name="kdenlive:audio_track">1</property>
 </playlist>
 <producer id="1_playlist1" title="Anonymous Submission" out="10580" in="0">
  <property name="length">00:05:52:21</property>
  <property name="eof">pause</property>
  <property name="resource">audio/dllist.flac</property>
  <property name="audio_index">0</property>
  <property name="video_index">-1</property>
  <property name="mute_on_pause">1</property>
  <property name="mlt_service">avformat-novalidate</property>
  <property name="seekable">1</property>
  <property name="kdenlive:folderid">-1</property>
  <property name="kdenlive:file_size">10485169</property>
  <property name="kdenlive:file_hash">304cf84e8799b705616b259eb730fc5f</property>
  <property name="global_feed">1</property>
  <property name="xml">was here</property>
  <property name="meta.media.nb_streams">1</property>
  <property name="meta.media.0.stream.type">audio</property>
  <property name="meta.media.0.codec.sample_fmt">s16</property>
  <property name="meta.media.0.codec.sample_rate">44100</property>
  <property name="meta.media.0.codec.channels">1</property>
  <property name="meta.media.0.codec.name">flac</property>
  <property name="meta.media.0.codec.long_name">FLAC (Free Lossless Audio Codec)</property>
  <property name="meta.media.0.codec.bit_rate">0</property>
 </producer>
 <playlist id="playlist1">
  <property name="kdenlive:track_name">Audio 1</property>
  <property name="kdenlive:audio_track">1</property>
  <entry out="293" producer="1_playlist1" in="197"/>
  <entry out="3110" producer="1_playlist1" in="294"/>
  <blank length="119"/>
  <entry out="3661" producer="1_playlist1" in="3111"/>
  <blank length="21"/>
  <entry out="6590" producer="1_playlist1" in="3662"/>
  <blank length="216"/>
  <entry out="8124" producer="1_playlist1" in="6591"/>
  <blank length="100"/>
  <entry out="8272" producer="1_playlist1" in="8125"/>
  <blank length="23"/>
  <entry out="10417" producer="1_playlist1" in="8359"/>
 </playlist>
 <playlist id="playlist2">
  <property name="kdenlive:track_name">Video 1</property>
  <entry out="290" producer="2" in="0"/>
  <entry out="262" producer="3" in="141"/>
  <entry out="466" producer="4" in="133"/>
  <entry out="191" producer="5" in="0"/>
  <entry out="269" producer="6" in="0"/>
  <entry out="203" producer="70" in="66"/>
  <entry out="280" producer="8" in="0"/>
  <entry out="235" producer="9" in="0"/>
  <entry out="404" producer="10" in="0"/>
  <entry out="301" producer="11" in="0"/>
  <entry out="274" producer="12" in="0"/>
  <entry out="29" producer="13" in="0"/>
  <entry out="29" producer="14" in="0"/>
  <entry out="45" producer="15" in="16"/>
  <entry out="29" producer="16" in="0"/>
  <entry out="29" producer="17" in="0"/>
  <entry out="29" producer="18" in="0"/>
  <entry out="44" producer="19" in="0"/>
  <entry out="42" producer="20" in="0"/>
  <entry out="58" producer="21" in="0"/>
  <entry out="142" producer="22" in="0"/>
  <entry out="151" producer="23" in="61"/>
  <entry out="29" producer="24" in="0"/>
  <entry out="29" producer="33" in="0"/>
  <entry out="29" producer="34" in="0"/>
  <entry out="29" producer="35" in="0"/>
  <entry out="44" producer="36" in="0"/>
  <entry out="29" producer="37" in="0"/>
  <entry out="146" producer="38" in="0"/>
  <entry out="157" producer="39" in="0"/>
  <entry out="317" producer="25" in="0"/>
  <entry out="22" producer="26" in="0"/>
  <entry out="131" producer="27" in="0"/>
  <entry out="40" producer="28" in="0"/>
  <entry out="342" producer="29" in="0"/>
  <entry out="141" producer="30" in="7"/>
  <entry out="38" producer="31" in="0"/>
  <entry out="166" producer="32" in="0"/>
  <entry out="159" producer="40" in="0"/>
  <entry out="31" producer="41" in="0"/>
  <entry out="294" producer="42" in="0"/>
  <entry out="272" producer="43" in="0"/>
  <entry out="679" producer="44" in="0"/>
  <entry out="44" producer="45" in="0"/>
  <entry out="44" producer="46" in="0"/>
  <entry out="44" producer="47" in="0"/>
  <entry out="44" producer="48" in="0"/>
  <entry out="163" producer="49" in="119"/>
  <entry out="305" producer="50" in="11"/>
  <entry out="324" producer="51" in="10"/>
  <entry out="39" producer="52" in="0"/>
  <entry out="105" producer="53" in="0"/>
  <entry out="240" producer="54" in="0"/>
  <entry out="56" producer="55" in="0"/>
  <entry out="172" producer="56" in="0"/>
  <entry out="297" producer="57" in="0"/>
  <entry out="242" producer="58" in="198"/>
  <entry out="84" producer="59" in="40"/>
  <entry out="499" producer="60" in="0"/>
  <entry out="38" producer="61" in="0"/>
  <entry out="335" producer="62" in="0"/>
  <entry out="28" producer="63" in="0"/>
  <entry out="296" producer="64" in="0"/>
  <entry out="108" producer="65" in="71"/>
  <entry out="209" producer="66" in="0"/>
  <entry out="439" producer="67" in="138"/>
  <entry out="378" producer="71" in="0"/>
  <entry out="169" producer="72" in="71"/>
 </playlist>
 <playlist id="playlist3">
  <property name="kdenlive:track_name">Video 2</property>
 </playlist>
 <tractor id="maintractor" title="Anonymous Submission" global_feed="1" out="10614" in="0">
  <track producer="black_track"/>
  <track producer="playlist0" hide="video"/>
  <track producer="playlist1" hide="video"/>
  <track producer="playlist2"/>
  <track producer="playlist3"/>
  <transition id="transition0">
   <property name="a_track">0</property>
   <property name="b_track">1</property>
   <property name="mlt_service">mix</property>
   <property name="always_active">1</property>
   <property name="combine">1</property>
   <property name="internal_added">237</property>
  </transition>
  <transition id="transition1">
   <property name="a_track">0</property>
   <property name="b_track">2</property>
   <property name="mlt_service">mix</property>
   <property name="always_active">1</property>
   <property name="combine">1</property>
   <property name="internal_added">237</property>
  </transition>
  <transition id="transition2">
   <property name="a_track">0</property>
   <property name="b_track">3</property>
   <property name="mlt_service">mix</property>
   <property name="always_active">1</property>
   <property name="combine">1</property>
   <property name="internal_added">237</property>
  </transition>
  <transition id="transition3">
   <property name="a_track">0</property>
   <property name="b_track">4</property>
   <property name="mlt_service">mix</property>
   <property name="always_active">1</property>
   <property name="combine">1</property>
   <property name="internal_added">237</property>
  </transition>
  <transition id="transition4">
   <property name="a_track">0</property>
   <property name="b_track">3</property>
   <property name="compositing">0</property>
   <property name="distort">0</property>
   <property name="mlt_service">qtblend</property>
   <property name="always_active">1</property>
   <property name="internal_added">237</property>
  </transition>
  <transition id="transition5">
   <property name="a_track">0</property>
   <property name="b_track">4</property>
   <property name="compositing">0</property>
   <property name="distort">0</property>
   <property name="mlt_service">qtblend</property>
   <property name="always_active">1</property>
   <property name="internal_added">237</property>
  </transition>
 </tractor>
</mlt>
